<svg xmlns="http://www.w3.org/2000/svg" enable-background="new 0 0 55 55" viewBox="0 0 55 55"><path fill="#231f20" d="M50.8,37.3c-0.5-0.3-1.1-0.5-1.6-0.5c-0.5,0-1,0-1.3,0c-0.4,0-0.6-0.2-0.8-0.5c-0.4-0.6-0.5-1.3-0.6-2
		c-0.1-0.7-0.1-1.3-0.2-1.9c0-0.3,0-0.6-0.1-0.9c0,0,0-0.1,0-0.1c-0.1-1.6-0.1-2.6-0.2-2.6c0,0-0.1,0.3-0.2,0.9
		c0,0.4-0.1,0.8-0.1,1.4c-0.4,0-1.1,0.3-1.8,0.8c-1,0.7-1.5,1.7-1.3,1.9c0.3,0.3,1.2-0.1,2.1-0.8c0.3-0.3,0.6-0.5,0.9-0.8
		c0,0,0,0.1,0,0.1c0,0.6,0,1.2,0.1,1.9c0,0.2,0,0.3,0,0.5c-0.3,0-0.7,0.1-1.1,0.4c-0.6,0.4-0.9,1-0.6,1.4c0.2,0.3,0.9,0.2,1.5-0.2
		c0.2-0.2,0.4-0.3,0.5-0.5c0.1,0.3,0.2,0.6,0.4,0.9c0.3,0.4,0.8,0.8,1.3,0.9c0.5,0.1,0.9,0.1,1.4,0.1c-0.1,0.1-0.2,0.1-0.3,0.2
		c-0.6,0.5-0.7,1.2-0.4,1.5c0.3,0.2,0.9,0,1.4-0.4c0.3-0.3,0.5-0.6,0.6-0.9c0.3,0.2,0.6,0.5,0.7,0.9c0.1,0.4,0,0.8-0.1,1.2
		c-0.2,0.4-0.6,0.9-0.8,1.4c-0.6,0.9-1.3,1.9-2,2.9c-0.7,1-1.5,2-2.3,3c-0.4,0.5-0.9,1-1.3,1.5c-0.4,0.5-0.9,1.4-1,1.5
		c0,0,0,0.1-0.2-0.1c-0.2-0.1-0.5-0.4-0.7-0.6c-1.6-1.4-3.1-3-4.5-4.6c-0.9-1.1-1.9-2.3-2.6-3.6c-0.3-0.6-0.7-1.4-0.7-1.9
		c-0.1-0.6,0.1-1,0.6-1.3c0.2-0.2,0.6-0.3,0.9-0.3c0.2,0,0.3-0.1,0.5-0.1c0.2,0,0.4-0.1,0.7-0.1c0.5-0.1,1-0.4,1.3-0.9
		c0.4-0.5,0.5-1,0.6-1.4c0.1-0.9,0.1-1.6,0.1-2.4c0-0.8,0.1-1.5,0.1-2.3c0-4.3-0.3-8.6,0-12.6c0.1-0.6,0.1-1.3,0.2-1.8
		c0.1-0.5,0.3-1,0.7-1.3c0.7-0.7,1.9-0.9,2.8-0.7c1,0.2,1.9,0.7,2.3,1.4c0.2,0.4,0.4,0.8,0.4,1.2c-0.3,0.1-0.6,0.3-1,0.6
		c-0.6,0.5-1,1.2-0.7,1.5c0.2,0.3,1,0.2,1.7-0.4c0,0,0,0,0.1-0.1c0,0.8-0.1,1.7-0.1,2.4c0,0.2,0,0.5,0,0.7c-0.3,0.1-0.6,0.3-0.9,0.6
		c-0.5,0.5-0.9,1.1-0.7,1.4c0.2,0.3,1,0.2,1.6-0.4c0,2.4,0,1.6,0,2.5c-0.4,0-1,0.4-1.7,0.9c-0.8,0.6-1.5,1.2-1.4,1.6
		c0.1,0.4,1.2,0.3,2.2-0.5c0.4-0.3,0.6-0.6,0.8-0.9c0.1,3.4,0.3,1.7,0.5-1.7c0.1-1.2,0.1-2.6,0.2-4.2c0.1-1.8,0.8-4-0.3-5.8
		c-0.6-1.1-1.7-1.8-3-2c-1.2-0.2-2.7-0.1-3.8,0.9c-0.6,0.5-0.9,1.2-1.1,1.9c-0.1,0.7-0.2,1.3-0.3,2c-0.2,2.5-0.2,5.1-0.2,7.6
		c-0.4-0.9-0.8-1.8-1.5-2.6c-1.1-1.5-2.8-2.7-4.7-3.6c-1-0.4-2-0.7-3.1-0.8c-1.1-0.1-2.3-0.1-3.4,0.1c-3.5,0.7-6.9,3.2-8.5,6.9
		c0-0.6,0.1-1.2,0.1-2c0.1-0.6,0.1-1.3,0.2-2c0.1-0.7,0.2-1.5,0.7-2.1C18.3,18.8,19,19,20,19c0.5,0,1.2-0.2,1.7-0.5
		c0.5-0.3,1-0.8,1.2-1.5c0.2-0.7,0.1-1.4-0.2-2c-0.1-0.3-0.3-0.6-0.5-0.8c-0.2-0.3-0.3-0.5-0.5-0.8c-0.6-1-1.4-2.1-2.1-3.2
		c-0.8-1.1-1.5-2.2-2.4-3.3c-0.5-0.5-0.9-1.1-1.3-1.6c-0.2-0.3-0.4-0.5-0.6-0.8c-0.2-0.3-0.4-0.7-0.9-1c-0.3-0.2-0.7-0.3-1-0.2
		c-0.3,0.1-0.6,0.2-0.8,0.3c-0.4,0.3-0.6,0.5-0.9,0.8c-0.6,0.5-1.1,1-1.7,1.5C9,6.9,7.9,8.1,6.9,9.3c-1,1.2-2.1,2.5-2.9,4
		c-0.2,0.4-0.4,0.8-0.6,1.2c-0.2,0.4-0.3,0.8-0.4,1.4c-0.1,0.5-0.1,1.1,0.2,1.6c0.2,0.5,0.6,1,1.1,1.3c0.5,0.3,0.9,0.5,1.4,0.6
		c0.2,0.1,0.5,0.1,0.7,0.1c0.2,0,0.4,0.1,0.5,0.1c0.7,0.2,0.9,0.4,1,1.2C8,21.4,7.9,22.3,8,23c0,0.8,0.1,1.6,0.1,2.4
		c0.2,10.9,0.2,8.2,0.3,13.5c0,0.7,0,1.4,0.1,2.1c0,0.4,0.1,0.7,0.2,1.1c0.1,0.4,0.3,0.8,0.7,1.1c0.8,0.6,1.6,0.6,2.2,0.6
		c0.7,0,1.3,0,1.9-0.1c1.2-0.2,2.6-0.6,3.4-1.7c0.8-1.1,0.7-2.4,0.6-3.4c-0.2-3.3-0.1-2.5-0.2-4.2c0.1,0.1,0.2,0.3,0.3,0.4
		c2.3,3.6,6.1,5.5,9.2,5.5c2.8,0.1,5-0.7,6.5-1.5c0,0.3,0,0.6,0,0.9c0.2,1,0.5,1.7,0.9,2.4c0.8,1.4,1.8,2.6,2.7,3.8
		c1.4,1.7,3,3.2,4.7,4.7c0.3,0.2,0.5,0.5,0.9,0.7c0.2,0.1,0.4,0.3,0.7,0.3c0.3,0.1,0.7,0,0.9-0.2c0.5-0.4,0.6-0.7,0.9-1
		c0.5-0.8,1.1-1.5,1.8-2.3c0.9-1.1,1.6-2.1,2.3-3.1c0.7-1,1.4-2,2-3c0.1-0.2,0.3-0.5,0.4-0.7c0.1-0.2,0.3-0.5,0.4-0.8
		c0.3-0.6,0.4-1.3,0.1-1.9C51.8,38.1,51.3,37.6,50.8,37.3z M16.7,19.8c-0.1-0.3-0.4-0.7-0.8-0.9c-0.6-0.4-1.3-0.5-1.6-0.2
		c-0.2,0.3,0.1,0.9,0.7,1.4c0.5,0.4,1.1,0.5,1.4,0.3c-0.1,0.4-0.1,0.8-0.1,1.2c0,0.8,0,1.4-0.1,2.1c0,0.1,0,0.1,0,0.2
		c-0.2-0.3-0.4-0.6-0.7-0.9c-0.8-0.8-1.6-1.3-1.9-1.1c-0.3,0.2,0.1,1.2,0.9,2.1c0.6,0.7,1.3,1,1.7,1.1c0,0.6,0.1,1.1,0.1,1.5
		c-0.2,0.6-0.4,1.3-0.5,2c-0.1,0.3-0.1,0.7-0.1,1c-0.1-0.1-0.1-0.1-0.2-0.2c-1.1-0.8-2.2-0.9-2.3-0.5c-0.1,0.4,0.6,1,1.5,1.7
		c0.4,0.3,0.8,0.6,1.2,0.8c0.1,0.6,0.3,1.2,0.5,1.7c0,0.3,0,0.5,0,0.8c0,0-0.1-0.1-0.1-0.1c-0.7-0.6-1.5-0.8-1.7-0.4
		c-0.2,0.3,0.2,0.9,0.8,1.5c0.4,0.3,0.7,0.6,1.1,0.6c0,0.6,0,0.3,0,3c0,0-0.1-0.1-0.1-0.1c-0.7-0.6-1.5-0.8-1.7-0.4
		c-0.2,0.3,0.2,1,0.8,1.5c0.4,0.3,0.7,0.5,1,0.6c0,0.1,0,0.2,0,0.3c-0.1,0.5-0.2,0.9-0.5,1.3c-0.5,0.7-1.6,1.1-2.7,1.2
		c-0.6,0.1-1.2,0.1-1.8,0.1c-0.6,0-1.2-0.1-1.4-0.3c-0.3-0.2-0.4-0.8-0.4-1.4c0-0.6,0-1.3,0-2c-0.1-5.2,0-2.6-0.2-13.5
		c0-0.8-0.1-1.6-0.1-2.4c-0.1-0.8,0-1.6-0.2-2.5C9.1,20,9,19.4,8.6,19c-0.4-0.5-1-0.7-1.4-0.8C6.7,18,6.4,18,5.9,17.9
		c-0.3-0.1-0.7-0.2-0.9-0.4c-0.5-0.3-0.7-0.8-0.6-1.5c0-0.3,0.2-0.7,0.3-1c0.7-1.7,2.1-3.5,3.3-4.9c1.5-1.7,3.1-3.4,4.8-4.9
		c0.3-0.2,0.6-0.5,0.8-0.7c0.1-0.1,0.2-0.1,0.2-0.1c0,0,0,0,0,0c0.3,0.2,0.7,1,1.2,1.6c0.5,0.6,0.9,1.1,1.4,1.6
		c0.9,1,1.7,2.1,2.4,3.1c0.8,1,1.5,2.1,2.1,3.1c0.5,0.8,0.8,1.2,0.9,1.4c0.2,0.4,0.3,0.9,0.2,1.3c-0.2,0.6-0.8,1.1-1.5,1.3
		c-0.2-0.4-0.7-0.9-1.4-1.4c-1-0.8-1.9-1.3-2.1-1c-0.3,0.3,0.2,1.3,1.3,2.1c0.2,0.2,0.4,0.3,0.6,0.4c-0.1,0-0.3,0-0.4,0
		c-0.6,0.1-1.1,0.4-1.4,0.9C16.9,19.3,16.8,19.6,16.7,19.8z M37.8,35.2c-0.1,0.7-0.3,0.9-0.9,1.1c-0.2,0.1-0.3,0.1-0.5,0.1
		c0.3-0.3,0.8-0.8,1.2-1.5c0.1-0.1,0.1-0.3,0.2-0.4C37.9,34.8,37.8,35,37.8,35.2z M33.5,38.1C33.5,38.1,33.5,38.1,33.5,38.1
		c-1.5,0.7-3.8,1.5-6.7,1.3c-1.4-0.1-3-0.5-4.4-1.4c-3.1-1.9-5.6-5.6-5-9.3c0.3-2,1.3-4,2.8-5.5c1.5-1.6,3.4-2.6,5.4-3
		c1-0.2,2-0.2,3-0.1c1,0.1,1.9,0.4,2.8,0.7c1.7,0.7,3.2,1.8,4.3,3.1c1.1,1.3,1.7,2.7,2,4.2C37.9,29,38,30,38,31c0,0,0,0.1,0,0.1
		c0,1.5-0.3,2.8-0.8,3.6c-0.5,0.9-0.9,1.5-1.2,1.8c-0.1,0-0.1,0-0.2,0c-0.4,0.1-0.9,0.3-1.3,0.5C34.1,37.3,33.7,37.6,33.5,38.1z"/><path fill="#231f20" d="M30.8,28.8C30,28.3,29.1,28,28.2,28c0-1.6-0.1-2.9-0.2-4c0.2,0,0.4,0,0.6,0c0.7,0,1,0.2,1.1,0.1
		c0-0.1-0.2-0.4-1-0.7c-0.2-0.1-0.5-0.1-0.8-0.1c-0.3-2.4-0.6-2.4-0.9,0c-0.5,0.1-1.1,0.3-1.6,0.6c-0.6,0.4-1.2,1-1.5,1.9
		c-0.3,0.9-0.1,2.1,0.7,2.9c0.4,0.4,1,0.7,1.6,0.7c0.2,0,0.4,0,0.6,0c0,1.5,0,3,0.1,4.5c-0.3-0.1-0.5-0.1-0.7-0.2
		c-1.1-0.5-1.7-1.3-2.1-1.8c-0.4-0.6-0.5-1-0.6-1c-0.1,0-0.2,0.4,0.1,1.2c0.2,0.7,0.8,1.8,2.1,2.5c0.4,0.2,0.8,0.4,1.2,0.5
		c0.3,3.8,0.8,3.9,1.1,0.1c0.8,0,1.7-0.2,2.6-0.7c0.4-0.3,0.8-0.6,1.2-1c0.3-0.4,0.6-1,0.6-1.7C32.4,30.6,31.7,29.5,30.8,28.8z
		 M26.8,28c-0.6,0-1,0-1.2-0.3c-0.4-0.4-0.6-1-0.5-1.6c0.1-0.6,0.5-1.1,1-1.4c0.3-0.2,0.6-0.4,0.9-0.5C26.9,25.3,26.8,26.6,26.8,28z
		 M29.9,33.4c-0.6,0.4-1.2,0.6-1.8,0.6c0.1-1.3,0.1-2.9,0.1-4.7c0.6,0,1.2,0.2,1.7,0.6c0.6,0.5,1.1,1.2,1.1,1.8
		C31,32.4,30.5,33,29.9,33.4z"/></svg>