<svg xmlns="http://www.w3.org/2000/svg" viewBox="0 0 32 32"><g data-name="Layer 3"><path d="M14.19336,16.07031l-.0957-.02246c-.1582-.04-.31543-.06836-.47461-.09766l-.35547-.06543a3.20492,3.20492,0,0,1-.54687-.13086c-.10547-.04-.16406-.08594-.17578-.13477a1.38161,1.38161,0,0,1,.09961-.87207,1.0126,1.0126,0,0,1,.82971-.40656l.00134.00031.00269-.00085c.01617-.0011.03314-.00537.04907-.006l.11523-.00586a1.05848,1.05848,0,0,1,.49316.042c.123.07031.165.1416.20605.34473a.24993.24993,0,0,0,.49023-.09766.89177.89177,0,0,0-.44824-.68066,1.12392,1.12392,0,0,0-.59882-.11639.63973.63973,0,0,1,.01483-.076,1.78626,1.78626,0,0,0,.05664-.58008l-.002-.13379a.24985.24985,0,0,0-.249-.251h-.001a.25028.25028,0,0,0-.25.249l.002.14648a1.34321,1.34321,0,0,1-.0332.41895,1.13122,1.13122,0,0,0-.04871.27008,1.38749,1.38749,0,0,0-1.07629.65765,1.88232,1.88232,0,0,0-.13965,1.21094.7033.7033,0,0,0,.48047.48828,3.57444,3.57444,0,0,0,.63965.15625l.35645.06543c.14648.02637.293.05273.43945.08984l.11133.02539a.89634.89634,0,0,1,.27051.08887c.14453.09766.11328.58887-.01758.81348a.68063.68063,0,0,1-.5332.37793,1.0517,1.0517,0,0,1-.49219-.02148,1.88866,1.88866,0,0,1-.71777-.29687c-.0459-.03516-.15234-.11816-.15234-.15234a.25049.25049,0,0,0-.24707-.25293h-.00293a.25051.25051,0,0,0-.25.24707.73655.73655,0,0,0,.36816.57031,2.36632,2.36632,0,0,0,.90332.375c.02362.00629.04651.00439.06982.00958-.0025.01306-.01465.02185-.01514.03534l-.001.0293a.232.232,0,0,0,.00293.03809,2.21617,2.21617,0,0,1-.041.3457,2.59731,2.59731,0,0,0-.04785.46.24987.24987,0,0,0,.25.24707h.00293a.24986.24986,0,0,0,.24707-.25293,2.05593,2.05593,0,0,1,.041-.37109,2.3247,2.3247,0,0,0,.04535-.50555c.04028-.00439.077-.004.11969-.011a1.17624,1.17624,0,0,0,.88184-.61914c.19727-.33789.32813-1.166-.13379-1.47949A1.21882,1.21882,0,0,0,14.19336,16.07031Z"/><path d="M31.31348,8.24023a1.17715,1.17715,0,0,0-.457-.2041,2.82806,2.82806,0,0,0-.56738-.1543l-.07715-.01074c-.502-.06934-1.02148-.1416-1.5127-.25293a5.7839,5.7839,0,0,0-.80078-.10352l-.26855-.02344c-.34766-.0332-.69239-.08008-1.03809-.12793l-.28906-.03906c-.68945-.0918-1.3916-.13965-2.07129-.18555-.39355-.02734-.78613-.05371-1.21191-.0918a13.25456,13.25456,0,0,0-1.33105-.07715c-.44629.001-.87793-.01074-1.29395-.042C19.333,6.84961,18.22266,6.79,17.0957,6.75c-.374-.01367-.74414-.04883-1.11621-.08887-.18164-.01855-.36426-.02344-.54687-.02734-.166-.00391-.33105-.00684-.49707-.02441-.084-.00879-.168-.02051-.252-.0332-.09668-.01367-.19336-.02734-.29785-.03809-.5332-.05078-1.08789-.10254-1.623-.09961-.252-.001-.499-.01074-.748-.02344-.17383-.00879-.34766-.01758-.52148-.02148-.53516-.0127-1.06738-.00684-1.60059-.00293-.36328.00391-.72363.00977-1.0918.001a4.1404,4.1404,0,0,0-.67676.0166c-.28711.03516-.55664.07227-.84082.126-.04.00781-.082.0127-.124.01758a1.79339,1.79339,0,0,0-.2207.03613,1.52784,1.52784,0,0,0-.25781.09668c-.043.01953-.08594.03906-.13184.05469a1.76813,1.76813,0,0,1-.23242.06055,1.7986,1.7986,0,0,0-.38477.11914.3312.3312,0,0,0-.17578.02539.336.336,0,0,0-.19141.37207,3.01207,3.01207,0,0,0,.0459.35449c.0127.07422.02637.14844.0332.21973a4.64763,4.64763,0,0,1,.01172.53516l-.002.21094.00488.09863a1.5399,1.5399,0,0,1-.00586.4248.24987.24987,0,0,0,.40527.292,1.18537,1.18537,0,0,0,.09961-.748l-.00391-.07031.002-.20117a5.235,5.235,0,0,0-.01367-.59375c-.00879-.083-.02344-.167-.03809-.252-.01074-.06055-.02051-.12012-.0293-.18945.02344-.00977.05566-.02344.09375-.041a1.6718,1.6718,0,0,1,.25293-.06836,2.18178,2.18178,0,0,0,.29492-.07715c.05762-.02051.11426-.0459.1709-.07031a1.04272,1.04272,0,0,1,.17285-.06836,1.323,1.323,0,0,1,.15723-.02344c.05371-.00684.10742-.0127.16016-.02246.27246-.05176.53223-.08887.80762-.12207a3.973,3.973,0,0,1,.60449-.0127c.373.00977.73926.00293,1.10742-.001.52832-.00391,1.05664-.00977,1.585.00293.16992.00391.33887.0127.50781.02148.25977.0127.52539.02051.77832.02344.50586,0,1.04883.04688,1.57715.09863.08887.00879.17871.02148.26758.03418.09082.01367.18164.02637.27148.03613.17871.01855.3584.02246.53809.02637.168.00391.33691.00684.50488.02539.38379.04.76563.07715,1.15137.09082,1.12109.04,2.22461.09863,3.2793.17578.42969.0332.86426.0459,1.335.04395.42676-.001.84277.03418,1.31543.07813.39551.03516.793.0625,1.18945.08984.67188.04492,1.36621.09277,2.03906.18262l.28711.03906c.35254.04785.7041.0957,1.05859.12988l.27637.02344a5.09176,5.09176,0,0,1,.73047.09375c.51172.11523,1.042.18945,1.55469.26074l.07813.01074a2.44526,2.44526,0,0,1,.46875.12988l.00751.0025a9.94846,9.94846,0,0,0-1.26923.74554.12493.12493,0,0,0,.07227.22656.12273.12273,0,0,0,.07227-.02344,10.04167,10.04167,0,0,1,1.40491-.81354.94747.94747,0,0,1,.01794.26959l-.00391.12012.00049.07825c-.3111.24237-.63269.49268-.96143.71277l-.10449.07129a2.29924,2.29924,0,0,1-.46973.27148.12506.12506,0,0,0,.04395.24219.139.139,0,0,0,.04395-.00781,2.53131,2.53131,0,0,0,.52344-.2998l.10156-.07031c.28412-.18915.55548-.40173.82428-.61017a5.07454,5.07454,0,0,1-.03912.85626c-.05359.33881-.08069.6803-.108,1.01477a.12481.12481,0,0,0-.15564.01257,5.05542,5.05542,0,0,1-.7666.66309l-.06543.0498a.579.579,0,0,1-.24316.13379.12485.12485,0,0,0,.0127.249l.0127-.001a.75563.75563,0,0,0,.36914-.18359l.05957-.04492a5.35747,5.35747,0,0,0,.75293-.64661c-.01807.21826-.03821.43634-.06335.65405-.30609.165-.61353.33575-.91418.52283a.785.785,0,0,0-.54492.45313.12379.12379,0,0,0,.06445.16406.11179.11179,0,0,0,.0498.01074.12522.12522,0,0,0,.11426-.0752.5483.5483,0,0,1,.39746-.31543.13465.13465,0,0,0,.03516-.01465c.25092-.15686.5072-.29626.76233-.43774-.03027.23627-.06146.47235-.092.70856a.11733.11733,0,0,0-.13318-.00616c-.14258.09766-.27832.20313-.415.30859a5.48326,5.48326,0,0,1-.64453.4502c-.10645.05957-.2168.1123-.32715.16406-.08984.043-.17969.08594-.26855.13281a.125.125,0,0,0,.05859.23535.127.127,0,0,0,.05859-.01465c.085-.04492.17188-.08594.25879-.127.11523-.05469.23047-.11035.34277-.17285a5.60424,5.60424,0,0,0,.67383-.4707c.12061-.09308.242-.18475.36621-.2713q-.05081.39175-.10181.78333c-.00378-.00665-.00146-.01477-.00659-.02081a.12506.12506,0,0,0-.17578-.01562c-.0918.07617-.18457.1582-.27734.24023a5.2092,5.2092,0,0,1-.69141.54492.125.125,0,0,0,.06543.23145.12332.12332,0,0,0,.06543-.01855,5.35729,5.35729,0,0,0,.72559-.57031c.0918-.08105.18164-.16113.27246-.23633l.00275-.00525c-.01965.14978-.0387.29987-.05841.44958l-.02148.15918-.00439.035c-.01477.00574-.03137.00531-.04346.01672l-.18262.17773a7.79647,7.79647,0,0,1-.92578.81445,1.17991,1.17991,0,0,0-.11133.08984.75816.75816,0,0,1-.12109.09277.125.125,0,0,0,.06055.23438.12172.12172,0,0,0,.06055-.01562.97783.97783,0,0,0,.16309-.123c.03027-.02539.06152-.05273.09277-.0752a7.871,7.871,0,0,0,.95605-.83887l.00525-.00513c-.0224.19391-.04083.38916-.04431.58521-.00146.07489-.00677.16223-.0094.24249-.00476.00262-.0105.00031-.015.0036-.17773.12793-.34668.2666-.51562.40527-.15332.126-.30664.251-.46582.36914-.01758.01172-.04.02539-.06445.041-.11719.07227-.2793.17285-.28809.34082a.12612.12612,0,0,0,.11816.13184h.00684a.12525.12525,0,0,0,.125-.11816c.002-.03809.124-.11328.16992-.14258.03027-.01855.05762-.03516.08008-.05176.16309-.12012.32031-.248.47656-.377.11859-.097.23914-.18982.36-.28259-.01312.20563-.03369.42041-.068.63806l-.01636.10956-.012.00372c-.07227.06152-.14355.123-.21484.18555a6.4194,6.4194,0,0,1-.6123.49121,2.50794,2.50794,0,0,1-.24121.13477,2.17685,2.17685,0,0,0-.33789.20215.125.125,0,0,0,.07715.22363.12712.12712,0,0,0,.07715-.02637,1.78949,1.78949,0,0,1,.29785-.17676A2.59487,2.59487,0,0,0,29.5,18.15234a6.38889,6.38889,0,0,0,.63287-.50592c-.02209.13074-.03949.2627-.07233.39069a3.37929,3.37929,0,0,0-.06525.33844.11916.11916,0,0,0-.14081-.00739,7.31371,7.31371,0,0,1-1.13477.65234.125.125,0,0,0,.05469.2373.12126.12126,0,0,0,.05469-.0127,7.66066,7.66066,0,0,0,1.137-.65161c-.00873.07745-.01843.15558-.0257.23169l-.02441.23438a8.36126,8.36126,0,0,0-.03613,1.03223l.002.1416H28.44824a.25.25,0,0,0,0,.5h1.63184a.24773.24773,0,0,0,.16309-.06055.54291.54291,0,0,0,.1377-.46777l-.001-.11719a8.15824,8.15824,0,0,1,.03223-.97168l.02539-.24219a4.66493,4.66493,0,0,1,.10743-.71191,7.23574,7.23574,0,0,0,.13672-.73633l.0293-.19238a9.18444,9.18444,0,0,0,.0957-1.26855,8.175,8.175,0,0,1,.09082-.93066l.02148-.16113q.16406-1.248.32422-2.49707c.03906-.30273.06348-.60645.08789-.90918.03027-.36621.06055-.74512.11816-1.10937a5.98457,5.98457,0,0,0,.04492-1.02734l-.002-.293.00391-.09961A.85783.85783,0,0,0,31.31348,8.24023Z"/><path d="M27.62573,11.88721a.884.884,0,0,0-.071-.33936c-.15723-.29-.54785-.34668-.833-.38672-.06055-.00879-.11426-.0166-.15527-.02539-.14258-.0332-.28027-.07715-.417-.12012a3.61089,3.61089,0,0,0-.81934-.18555c-.3252-.02441-.64746-.06641-.9707-.1084a12.73839,12.73839,0,0,0-1.39258-.13086A27.66609,27.66609,0,0,1,20.043,10.417a9.69465,9.69465,0,0,0-1.24609-.05273l-.4043-.001c-.76074-.00781-1.53906-.084-2.22559-.15137a30.5052,30.5052,0,0,0-3.15039-.08984l-1.751.00293c-.98145.00293-1.96875.002-2.95605-.00293H8.22852c-1.06934,0-2.14844.09277-3.19238.18262l-.66016.05664a10.23708,10.23708,0,0,0-1.68066.3291c-.28906.07422-.57617.14844-.86328.20605-.05664.01074-.1123.01953-.167.02832a1.935,1.935,0,0,0-.53027.14258l-.48145.2627a.25017.25017,0,0,0-.11035.31641,2.68559,2.68559,0,0,1,.01367.7041c-.00488.08105-.00879.14746-.00879.19238l.001,9.35547c0,.15918-.01074.33691-.02246.52051a4.85312,4.85312,0,0,0,.02148,1.20117,2.14187,2.14187,0,0,0,1.01074,1.31836,4.39057,4.39057,0,0,0,2.6416.67578q.15234,0,.30176-.00293A6.8703,6.8703,0,0,0,6.62109,25.126a11.25551,11.25551,0,0,1,1.18262-.3584c.17188-.03809.33984-.05957.50879-.082.123-.01562.2461-.03223.37012-.05371a4.66345,4.66345,0,0,0,.65332-.1748c.14648-.04687.293-.09375.44434-.12988.24414-.05664.48242-.126.7207-.19531a8.08184,8.08184,0,0,1,1.14746-.27441,26.60512,26.60512,0,0,1,10.93359.32324l.60059.16992c.41211.11523.82422.23047,1.23145.35938.08691.02734.17676.06055.26855.09277a2.402,2.402,0,0,0,1.1123.21582c.55176-.06641.877-.584,1.09863-1.02734a4.81818,4.81818,0,0,0,.36426-2.26465v-.866a.115.115,0,0,0,0-.09412V17.71191c.001-.49023.001-.97949-.00293-1.46973-.00293-.34668.02539-.68359.05566-1.041.02441-.28613.04785-.57227.05566-.8623a4.56754,4.56754,0,0,1,.11621-.81055,4.9939,4.9939,0,0,0,.126-.89746c.001-.03711.00488-.09375.00977-.15918.00745-.10638.00647-.19495.00989-.29181.02643-.02472.05054-.05188.077-.07635a.125.125,0,0,0,.00684-.17676A.12931.12931,0,0,0,27.62573,11.88721Zm-.49927.43768c-.22266.21942-.4494.43732-.6626.65656-.34668.35645-.70508.72461-1.07617,1.06543-.14453.13281-.29395.25879-.44336.38574-.13281.11328-.26562.22559-.39551.34277l-.0625.05762a1.63369,1.63369,0,0,1-.2627.21191.12466.12466,0,0,0-.04395.1709.12322.12322,0,0,0,.10742.06152.12459.12459,0,0,0,.06348-.01758,1.7628,1.7628,0,0,0,.30469-.24316l.06152-.05566c.12793-.11523.25879-.22656.38965-.33789.15234-.12891.30371-.25781.45117-.39258.376-.34473.73633-.71582,1.08594-1.0752.14709-.15131.30518-.3.45679-.45258a5.09813,5.09813,0,0,1-.10815.726c-.03156.15729-.06171.31842-.08588.48273-.0094.00757-.02222.00873-.02936.01923a6.69506,6.69506,0,0,1-1.75684,1.5918l-.06152.042a2.35745,2.35745,0,0,0-.61426.53027.12391.12391,0,0,0,.02441.1748.12682.12682,0,0,0,.0752.02539.12212.12212,0,0,0,.09961-.0498,2.137,2.137,0,0,1,.55566-.47363l.06152-.042a7.64586,7.64586,0,0,0,1.60468-1.39069c-.0072.27588-.02985.54822-.05292.82037-.00915.11029-.00958.22754-.018.34009a.12247.12247,0,0,0-.16071.00757c-.53125.54-1.08887,1.05859-1.61328,1.53906l-.09277.085a4.124,4.124,0,0,0-.61426.64746.12413.12413,0,0,0,.0293.17383.12273.12273,0,0,0,.07227.02344.12463.12463,0,0,0,.10156-.05273,3.99039,3.99039,0,0,1,.5791-.60742l.09375-.08594c.51721-.47406,1.068-.98547,1.59381-1.51923-.01086.179-.02985.35382-.02838.53583.002.1933.00067.38684.00116.58032a8.24581,8.24581,0,0,0-.8371.59253l-.23047.17969c-.10645.082-.21289.16211-.31934.24219-.17383.13184-.34863.2627-.51953.39844a.12506.12506,0,0,0,.15625.19531c.16895-.13379.34082-.26367.51367-.39355.10742-.08105.21484-.16211.32129-.24414l.2334-.18164c.22656-.17847.45007-.34241.68243-.49341,0,.19678.00153.39349.00116.59009v.22858c-.37274.37292-.75293.71405-1.07812.999l-.13379.11816a4.192,4.192,0,0,1-.51465.41211.125.125,0,0,0,.06738.23047.12249.12249,0,0,0,.06738-.01953,4.33011,4.33011,0,0,0,.5459-.43652l.13184-.11719c.27728-.24176.59521-.53082.91406-.8399v.67444a9.56225,9.56225,0,0,0-.75977.66351c-.1582.14941-.31738.29785-.48242.44043l-.08691.07422a7.4591,7.4591,0,0,0-.63477.58984.12508.12508,0,0,0,.18359.16992,6.99006,6.99006,0,0,1,.61426-.57031l.08594-.07422c.16895-.14453.33008-.2959.49121-.44824.18744-.176.3869-.34827.58887-.51453v1.67438c-.07941.06445-.16309.12659-.24023.19073a7.20184,7.20184,0,0,1-.72559.55566c-.04687.0293-.09863.05762-.15137.08691a1.68685,1.68685,0,0,0-.373.25293.125.125,0,0,0,.08789.21387.12257.12257,0,0,0,.08789-.03613,1.49227,1.49227,0,0,1,.31836-.21191c.05664-.03125.11328-.0625.16406-.09473a7.17025,7.17025,0,0,0,.752-.5752c.02576-.02148.054-.04187.08008-.06348v.33447a.12181.12181,0,0,0-.03125.08154.66465.66465,0,0,1-.07324.06445c-.01758.01367-.03418.02637-.04492.03613a5.94615,5.94615,0,0,1-.6543.50781c-.15723.10742-.31836.209-.49707.31934a.39168.39168,0,0,0-.22363.28223.12491.12491,0,0,0,.0957.14844.12122.12122,0,0,0,.02637.00293.12506.12506,0,0,0,.12207-.09863c.01367-.06348.02441-.06934.127-.13281.166-.10156.3291-.20508.49023-.31445a6.21244,6.21244,0,0,0,.66156-.51343q-.0011.3-.02246.59009a.125.125,0,0,0-.08832.02393c-.09668.07617-.19727.15039-.29785.22363a5.75963,5.75963,0,0,0-.61035.49316.127.127,0,0,0-.002.17773.12977.12977,0,0,0,.08984.03711.12421.12421,0,0,0,.08789-.03613,5.3993,5.3993,0,0,1,.583-.46973c.06958-.0517.13776-.10333.20612-.15509a2.79948,2.79948,0,0,1-.25592.8797c-.166.33105-.39648.7168-.71094.75488a2.08583,2.08583,0,0,1-.88281-.18945c-.09766-.03516-.19336-.07031-.28711-.09961-.41309-.13086-.83105-.248-1.248-.36426l-.59668-.16895a27.12578,27.12578,0,0,0-11.14062-.33887,8.70535,8.70535,0,0,0-1.21875.29c-.22949.06738-.46.13379-.69434.18945-.165.03809-.32422.08887-.4834.14063a4.466,4.466,0,0,1-.58594.1582c-.11719.02051-.23437.03516-.35059.05078-.18262.02344-.36426.04785-.55176.08887a11.61536,11.61536,0,0,0-1.23633.374,6.4284,6.4284,0,0,1-1.96484.458,4.20339,4.20339,0,0,1-2.64844-.583,1.6638,1.6638,0,0,1-.80762-1.00586,4.51842,4.51842,0,0,1-.0127-1.07227c.01172-.19531.02344-.38281.02344-.55176l-.001-9.35449c0-.03613.00391-.09375.00781-.16309a4.12075,4.12075,0,0,0,.00293-.70215l.2998-.16406a1.46873,1.46873,0,0,1,.38574-.0957c.06055-.00977.123-.01953.18652-.03223.2959-.05957.5918-.13574.88867-.21191A9.797,9.797,0,0,1,4.417,10.85938l.66211-.05566a32.12331,32.12331,0,0,1,3.22852-.18164c.98438.00391,1.96875.00488,2.959.00293l1.75293-.00293a29.63413,29.63413,0,0,1,3.09863.08789c.69727.06836,1.4873.14551,2.26855.15332l.41113.001a10.206,10.206,0,0,1,1.05249.03918c-.01776.01843-.03979.03351-.0564.05261q-.33984.28418-.68164.56055a7.53376,7.53376,0,0,0-.77051.71875.125.125,0,0,0,.00488.17676.12349.12349,0,0,0,.08594.03418.12658.12658,0,0,0,.09082-.03906,7.34633,7.34633,0,0,1,.74512-.69531c.23047-.18652.459-.373.69922-.57715a1.35515,1.35515,0,0,1,.26208-.20007c.23553.02631.46906.04346.70178.06085-.0351.02917-.06921.05811-.10449.08746a10.923,10.923,0,0,0-1.59473,1.51367.125.125,0,0,0,.09766.20313.12385.12385,0,0,0,.09766-.04687,10.7057,10.7057,0,0,1,1.55957-1.47754c.09985-.08307.19824-.1662.29681-.24927.41748.02472.84723.04071,1.281.0517-.15015.12219-.3.24457-.44794.37042-.22852.19336-.46387.39258-.7041.57617-.45215.34277-.89941.69141-1.34766,1.03906a.12522.12522,0,0,0,.1543.19727q.66943-.52148,1.34473-1.03711c.24609-.1875.4834-.38965.71387-.585.17285-.14648.3457-.29395.52344-.43457a.11062.11062,0,0,0,.08789-.00977.11616.11616,0,0,0,.0603-.1037l.0061.00018a10.11756,10.11756,0,0,1,1.01624.087c-.44159.28778-.86371.6156-1.27112.93451-.27441.21484-.54883.42871-.83008.63184-.17383.126-.35059.248-.52637.37109-.18457.12793-.36816.25586-.5498.38672a.12612.12612,0,0,0-.02832.1748.12366.12366,0,0,0,.10156.05176.12788.12788,0,0,0,.07324-.02344c.18066-.13086.36328-.25781.5459-.38477.17676-.123.35449-.24707.53027-.373.28418-.20508.56055-.42187.83789-.6377.41406-.32422.8418-.6582,1.28516-.94434a.12332.12332,0,0,0,.04-.16217c.03754.00488.076.00885.11334.01373.30389.0401.6073.07642.91174.10162-.5368.40405-1.04565.85443-1.53674,1.291-.21.18652-.41992.373-.63281.55664-.06738.05859-.1377.11621-.208.17383a3.617,3.617,0,0,0-.65039.63184.125.125,0,0,0,.20117.14844,3.43552,3.43552,0,0,1,.6084-.58691c.07129-.05957.14355-.11816.21289-.17773.21289-.18457.42383-.37207.63477-.55859.49707-.44238,1.01172-.89941,1.55273-1.30469a.119.119,0,0,0,.0329-.142A3.94215,3.94215,0,0,1,26,11.49316c.11334.03558.22827.06738.34375.09778-.18823.1825-.37683.36469-.5625.54968-.3623.35938-.73633.73047-1.12012,1.07715-.17383.15723-.35254.30859-.53027.46-.1709.14453-.3418.28906-.50781.43848a3.41347,3.41347,0,0,0-.46094.47363.12567.12567,0,0,0,.02344.17578.13193.13193,0,0,0,.07617.02539.12525.12525,0,0,0,.09961-.04883,3.24092,3.24092,0,0,1,.42773-.44043c.165-.14746.334-.291.50293-.43359.18066-.15332.36035-.30566.53711-.46484.3877-.35059.76465-.72461,1.12793-1.08594q.3371-.33472.68-.66357l.01434.00244c.10352.01465.4209.05957.46289.127A1.93937,1.93937,0,0,1,27.12646,12.32489Z"/><path d="M24.88574 21.7793a.125.125 0 0 0 .10449-.05664 3.28371 3.28371 0 0 1 .63672-.64941l.7959-.67383a.65582.65582 0 0 0 .04688-.0459.72165.72165 0 0 1 .08594-.07812.12521.12521 0 0 0 .01465-.249c-.11328-.0127-.209.08105-.2793.15332-.0127.0127-.02344.02441-.03125.03125l-.79395.6709a3.4437 3.4437 0 0 0-.68457.7041.12505.12505 0 0 0 .10449.19336zM9.11914 22.06738a2.38275 2.38275 0 0 1-.46.09277 3.4396 3.4396 0 0 0-.37793.06543c-.373.09375-.73828.2168-1.09082.33594-.37891.126-.74023.2666-1.07422.416-.12012.05469-.23828.11719-.35742.18066a4.60092 4.60092 0 0 1-.44727.21777c-.05566.02148-.11133.04492-.167.06934a3.31735 3.31735 0 0 1-.43262.1582 2.36486 2.36486 0 0 0-.31934.11426 1.78635 1.78635 0 0 1-.34863.11719l-.042.00781a3.61854 3.61854 0 0 1-.60156.0791H3.39648a1.64722 1.64722 0 0 1-.32031-.04395c-.06445-.0127-.12793-.02539-.19141-.03516A.715.715 0 0 1 2.29 23.457a4.03694 4.03694 0 0 1-.24121-.72461 4.30422 4.30422 0 0 1-.0752-1.09961c.002-.09961.00391-.19922.00391-.29883 0-.71777.01367-1.36328.043-1.97363a.12477.12477 0 0 0-.11914-.13086.12993.12993 0 0 0-.13086.11914c-.0293.61426-.043 1.26367-.043 1.98535 0 .09766-.002.19629-.00391.29492a4.42475 4.42475 0 0 0 .083 1.16406 4.20147 4.20147 0 0 0 .25684.76953.96207.96207 0 0 0 .78516.52832c.05957.00781.11816.02051.17773.03223a1.83725 1.83725 0 0 0 .37109.04883h.00586a3.86773 3.86773 0 0 0 .64453-.083l.041-.00781a1.99614 1.99614 0 0 0 .39941-.13184 1.97947 1.97947 0 0 1 .28613-.10352 3.4638 3.4638 0 0 0 .4668-.16992c.05469-.02344.1084-.0459.16211-.06738a4.69836 4.69836 0 0 0 .47266-.22949c.11426-.06055.22754-.12109.34277-.17285.32617-.14648.67969-.28418 1.05176-.4082.34766-.11719.708-.23828 1.07129-.33008a3.203 3.203 0 0 1 .35059-.05957 2.64579 2.64579 0 0 0 .50879-.10449.12508.12508 0 0 0-.082-.23633zM11.88574 21.71191a2.20988 2.20988 0 0 0-1.02441.03027l-.05859.01074a.12511.12511 0 0 0 .02344.248l.02344-.002.05859-.01172a2.01623 2.01623 0 0 1 .90918-.03516.12238.12238 0 0 0 .1543-.08594A.12492.12492 0 0 0 11.88574 21.71191zM7.71875 7.53125c-.16992.124-.334.25781-.49707.39258-.07227.05859-.14453.11816-.21582.17578l-.04.03125a2.28538 2.28538 0 0 0-.33789.30469.12542.12542 0 0 0 .19141.16211 2.00879 2.00879 0 0 1 .30078-.27051l.041-.03223c.07324-.05859.14648-.11816.21875-.17773.16016-.13184.31934-.2627.48535-.38281a.12522.12522 0 1 0-.14648-.20312zM8.35352 7.84668l-.12988.10645a5.33 5.33 0 0 0-.66309.61133c-.05957.06738-.11523.1377-.16992.208-.04.05078-.08008.10156-.12109.15137a.12479.12479 0 1 0 .19141.16016c.043-.05176.085-.10449.126-.15723.05273-.06641.10547-.13379.16211-.19824a4.94706 4.94706 0 0 1 .63379-.582l.13086-.1084a.12479.12479 0 1 0-.16016-.19141zM8.21484 8.60156c-.041.04492-.08105.08984-.123.13379a.83281.83281 0 0 1-.0791.06836.57323.57323 0 0 0-.21094.25.12457.12457 0 0 0 .08105.15723.12891.12891 0 0 0 .03809.00586A.12507.12507 0 0 0 8.04 9.12988c.01172-.03711.08008-.0918.12891-.13086a.90473.90473 0 0 0 .10352-.0918c.043-.04395.08594-.09082.12793-.13867a1.90305 1.90305 0 0 1 .39648-.36523.12573.12573 0 0 0 .043-.17187.12705.12705 0 0 0-.17187-.043A2.09838 2.09838 0 0 0 8.21484 8.60156zM29.62012 11.44629c.07324-.05859.14844-.11426.22266-.16992.09472-.07129.18848-.1416.28125-.2168.10742-.08789.209-.17969.31055-.27148a5.50839 5.50839 0 0 1 .42188-.35645.125.125 0 1 0-.14844-.20117 5.76545 5.76545 0 0 0-.44141.373c-.09766.08789-.19629.17773-.30078.2627-.08887.07227-.18164.1416-.27344.21-.07617.05762-.15234.11426-.22656.17285a.12522.12522 0 0 0 .1543.19727z"/></g></svg>