<svg xmlns="http://www.w3.org/2000/svg" viewBox="0 0 32 32"><g data-name="Layer 13"><path d="M.58008 12.99756a1.95229 1.95229 0 0 0 .83691.59717 5.105 5.105 0 0 0 2.25586.30518l.03125-.001a2.91717 2.91717 0 0 1-.09082.43945c-.03027.11572-.05957.22852-.07715.33105a7.54666 7.54666 0 0 0-.04492 1.58691c.00977.22705.01953.45117.01953.66895 0 .06836-.00488.14307-.00977.21924a2.18424 2.18424 0 0 0 .00977.53516 1.49033 1.49033 0 0 0 .05664.20508.62535.62535 0 0 1 .04395.20313.2504.2504 0 0 0 .14551.23047 1.05436 1.05436 0 0 0 .43457.0752c.127 0 .25684-.01172.37988-.02246.09082-.00781.1748-.01562.24316-.01562H6.19434c.2666 0 .53516.00488.80469.01074a18.91352 18.91352 0 0 0 1.98535-.03613 11.59969 11.59969 0 0 1 1.24316-.06934l.20313.00391a4.00156 4.00156 0 0 0 .7207-.02832 7.543 7.543 0 0 1 1.3252-.07031h1.26465a1.04018 1.04018 0 0 1 .10449.00879.916.916 0 0 0 .44824-.02344.37468.37468 0 0 0 .23926-.31836 2.20432 2.20432 0 0 0 .10352-1.00684c-.00488-.09814-.00977-.19434-.00977-.28516l-.001-1.56592c.001-.29-.02344-.57568-.04883-.85986-.02539-.28711-.04883-.55811-.0459-.835l.001-2.99316c0-.23535-.00781-.47705-.0166-.72168a8.45406 8.45406 0 0 1 .05957-1.74609 5.251 5.251 0 0 0 .05371-1.02979l-.002-.26025c0-.085.00684-.18164.01367-.28174a2.23252 2.23252 0 0 0-.042-.81641.24945.24945 0 0 0-.18848-.167 3.02788 3.02788 0 0 0-.73145-.02393 5.04019 5.04019 0 0 1-1.19824-.07275c-.123-.02148-.248-.03613-.373-.05078-.12793-.01465-.25586-.0293-.38184-.05273a5.44084 5.44084 0 0 0-.86816-.06934c-.082-.002-.16309-.00391-.24414-.00684.0166-.019.03418-.0376.05078-.05518a1.81733 1.81733 0 0 0 .23828-.29395 2.36636 2.36636 0 0 0 .07715-2.29932A4.82909 4.82909 0 0 0 9.05371.90479 3.13318 3.13318 0 0 0 6.68457.51758 2.09269 2.09269 0 0 0 5.13379 1.84863a4.32367 4.32367 0 0 0-.1709 2.16553 2.10953 2.10953 0 0 0 .88965 1.21289 4.23 4.23 0 0 1-.71.11963c-.14258.00781-.28516.0293-.42676.05078a3.50158 3.50158 0 0 1-.40918.04688c-.03418-.002-.06445-.002-.09668-.00488a.89072.89072 0 0 0-.28809.01074.25.25 0 0 0-.165.353 1.52322 1.52322 0 0 1 .0498.68457c-.00586.09814-.01172.19287-.01172.27881V8.5835c0 .09814-.00586.20459-.01172.31445a5.04827 5.04827 0 0 0-.00781.58447 4.54524 4.54524 0 0 0-.78906.01709c-.0957.00781-.16406.01367-.22852.01416a2.63417 2.63417 0 0 0-1.875.68311 1.36661 1.36661 0 0 0-.50391.9248c-.00684.19971-.00293.40088 0 .60156.00293.12256.00488.24512.00488.36621l-.002.11816A1.1092 1.1092 0 0 0 .58008 12.99756zm.29883-1.85742c.00781-.20654.126-.35986.35547-.58838a2.24478 2.24478 0 0 1 1.51953-.53809c.06445.00049.15918-.00635.27246-.01563a3.776 3.776 0 0 1 .85938.00244 1.09935 1.09935 0 0 0 .05762.11816.25357.25357 0 0 0 .14453.11523c.00977.0127.02148.0293.03613.05078a.24747.24747 0 0 0 .27637.09863.25024.25024 0 0 0 .17969-.23242.57509.57509 0 0 0-.28418-.52051 3.13421 3.13421 0 0 1-.01367-.70557c.00684-.11914.0127-.23437.0127-.34131V6.76855c0-.07715.00586-.16162.01074-.24951a3.13673 3.13673 0 0 0 .001-.57471h.0166A4.03337 4.03337 0 0 0 4.791 5.8916c.126-.019.25293-.03857.37891-.0459a5.17109 5.17109 0 0 0 .8877-.15283 5.64623 5.64623 0 0 1 .69727-.13281 1.85979 1.85979 0 0 0 .4541-.00244A.25.25 0 0 0 7.20313 5.061a2.209 2.209 0 0 0-.44336-.00293 1.62921 1.62921 0 0 1-1.3125-1.1709 3.84269 3.84269 0 0 1 .15918-1.87744A1.6056 1.6056 0 0 1 6.81934.999a2.64364 2.64364 0 0 1 2.00781.35107 4.49335 4.49335 0 0 1 1.72852 1.25439 1.87094 1.87094 0 0 1-.085 1.78174 1.50385 1.50385 0 0 1-.17285.20557 1.18723 1.18723 0 0 0-.36035.57373.25035.25035 0 0 0 .21484.2876 6.8592 6.8592 0 0 0 .69238.0415c.18011.00452.35248.01349.52277.0293-.07233.08441-.14685.16748-.21808.25244-.17578.21045-.35742.42822-.55371.62842A4.87943 4.87943 0 0 0 9.96 7.186a.12458.12458 0 0 0 .10449.19336.12365.12365 0 0 0 .10449-.05664 4.59151 4.59151 0 0 1 .60645-.74316c.20215-.20752.38672-.42871.56543-.64258.10675-.12726.21552-.25256.32544-.37732.12726.02258.25568.03876.38354.05359.10522.01251.21033.02557.31476.04279l-.01691.01727-.05078.0542c-.0791.08545-.16113.16846-.24316.25146-.127.12939-.25488.2583-.374.395-.15918.18262-.29785.38037-.43359.5708-.09277.13135-.18555.26318-.28516.39014a.1256.1256 0 0 0 .02148.17578.12712.12712 0 0 0 .07715.02637.12531.12531 0 0 0 .09863-.04785c.10156-.13037.19727-.26514.292-.3999.13184-.18555.26758-.37793.41895-.55127.11523-.13232.23926-.25781.3623-.3833.084-.085.167-.16992.249-.25684l.05176-.05615c.04944-.05444.09985-.1001.15033-.147a5.497 5.497 0 0 0 .71069.04425c-.17566.19409-.34521.39288-.50751.591-.09277.11328-.18555.22607-.2793.33691l-.10254.12158a11.11279 11.11279 0 0 0-.75879.96484.12486.12486 0 1 0 .207.13965 10.93884 10.93884 0 0 1 .74219-.94287l.10352-.12207c.09473-.11182.1875-.22559.28125-.33936.2088-.255.42773-.51123.65942-.74994a3.46594 3.46594 0 0 1 .41284-.00494 2.3537 2.3537 0 0 1-.00671.33c-.00433-.00439-.00385-.01123-.00891-.01508a.12649.12649 0 0 0-.1748.02393c-.2002.26318-.38477.541-.56445.80908-.19629.29443-.40039.59912-.62109.88135l-.085.1084c-.19238.24512-.3916.499-.56641.76758a.12455.12455 0 0 0 .03613.17285.12452.12452 0 0 0 .17285-.03613c.16895-.25977.36523-.50879.55371-.74951l.08594-.10889c.22656-.29.43262-.59814.63184-.89648.17029-.25586.348-.51855.53528-.76758-.00653.097-.01282.19232-.01282.27588l.00293.26709a5.71213 5.71213 0 0 1-.03369.79993q-.25269.36328-.51416.72009c-.31445.4292-.63965.873-.92285 1.33691a.125.125 0 0 0 .041.17188.12331.12331 0 0 0 .06543.01855.12455.12455 0 0 0 .10645-.06006c.27832-.45508.60059-.89453.91211-1.31934.09-.12335.17688-.24963.26642-.37372a11.05881 11.05881 0 0 0-.035 1.49139c.00177.04822.00171.0943.00336.14233-.26752.37152-.54138.7395-.81586 1.10718l-.08789.11719c-.0498.06787-.10156.13525-.1543.20264a6.778 6.778 0 0 0-.39648.55566.12516.12516 0 0 0 .041.17188.1248.1248 0 0 0 .17188-.041 6.472 6.472 0 0 1 .38184-.53369c.05273-.06885.10547-.13721.15723-.20605l.08691-.11719q.31549-.42224.62524-.84845c.00067.051.00366.10425.00366.1546l-.00031.91278c-.1311.21082-.2655.42181-.40692.62238a6.59741 6.59741 0 0 0-.78613 1.3252.1255.1255 0 0 0 .07031.1626.1237.1237 0 0 0 .0459.00879.12505.12505 0 0 0 .11621-.07861 6.39539 6.39539 0 0 1 .75781-1.27393c.07-.09924.13293-.20789.2027-.30981l-.00049 1.38843c-.0238.014-.0528.0191-.07037.04248a.15008.15008 0 0 0-.03027.10205c-.11328.16064-.22754.32031-.34375.481-.24316.34473-.5293.75635-.80176 1.19531a.1252.1252 0 0 0 .21289.13184c.26855-.43311.55176-.84082.793-1.18164.08673-.12061.1687-.237.25037-.353.006.23065.0174.4613.037.683-.00507.00421-.01245.00317-.01691.00836a5.9362 5.9362 0 0 0-.61914.90479l-.02246.0376a7.63384 7.63384 0 0 0-.38965.731.12557.12557 0 0 0 .0625.16553.12069.12069 0 0 0 .05176.01123.126.126 0 0 0 .11426-.07324 7.28408 7.28408 0 0 1 .376-.70654l.02246-.0376a7.69511 7.69511 0 0 1 .44257-.66888c.01074.15143.02673.30157.02618.45551l.00018.32172a.12093.12093 0 0 0-.13495.03571c-.13281.17871-.24707.36914-.35742.55273L13.5 16.103a3.61719 3.61719 0 0 0-.28125.519.125.125 0 0 0 .06738.16309.12821.12821 0 0 0 .04785.00928.12455.12455 0 0 0 .11523-.07764 3.51421 3.51421 0 0 1 .26367-.48291l.13477-.2207c.09082-.15161.18219-.29169.27869-.43066l.00061.9585c0 .09912.00488.2041.01074.311a1.84892 1.84892 0 0 1-.06152.77881.48758.48758 0 0 0-.02148.05859c-.05176-.002-.12012-.00879-.15918-.0127-.06152-.00586-.11719-.01074-.1543-.01074H12.47754a8.24013 8.24013 0 0 0-1.40723.07617 3.45378 3.45378 0 0 1-.627.02246l-.21191-.00391c-.44336 0-.85645.03223-1.32617.07422a17.79077 17.79077 0 0 1-1.89648.03125c-.27246-.00586-.54395-.01074-.81445-.01074H4.81445c-.08008 0-.17969.00781-.28711.01758a3.12433 3.12433 0 0 1-.43848.0166 1.44816 1.44816 0 0 0-.04687-.16113 1.0371 1.0371 0 0 1-.04-.1416A1.7822 1.7822 0 0 1 4 17.17676c.00586-.08789.01074-.17285.01074-.25146 0-.22461-.00977-.45605-.01953-.68994a7.14366 7.14366 0 0 1 .03711-1.48c.01563-.08984.042-.18945.06836-.2915a2.5234 2.5234 0 0 0 .11035-.6333.44285.44285 0 0 0-.11523-.335.45885.45885 0 0 0-.36426-.09766l-.0625.002a4.71308 4.71308 0 0 1-2.041-.26025 1.4761 1.4761 0 0 1-.64746-.4458.64333.64333 0 0 1-.09473-.47412l.002-.12793c0-.126-.002-.252-.00488-.37793C.876 11.522.87207 11.33057.87891 11.14014zM13.49609 28.207a1.45028 1.45028 0 0 0 1.31934.10156 3.02216 3.02216 0 0 0 .98926-.97656 2.70188 2.70188 0 0 0 .28711-.64648c.04395-.12793.09375-.25684.14453-.3877a6.70351 6.70351 0 0 0 .26855-.79687c.27832-1.14453.1543-2.61133-1.1123-2.97949a2.54361 2.54361 0 0 0-1.8457.2334 7.54032 7.54032 0 0 0 .21094-1.18457 5.66156 5.66156 0 0 0 .01563-1.09668c-.07227-.5957-.72168-.542-1.07617-.51562-.07715.00586-.15039.0127-.21484.0127l-.915.00977c-.76758.01074-1.56348.02148-2.33594-.00391-.2666-.00879-.53027-.02734-.793-.0459a10.66228 10.66228 0 0 0-1.5957-.0332 6.34765 6.34765 0 0 0-.92383.15625l-.26855.05762a3.27226 3.27226 0 0 1-.77441.0498l-.7666.001c-.25 0-.501.00293-.75293 0a3.50429 3.50429 0 0 0-.50781.02344l-.14453.01758c-.03711.00391-.0752.00781-.11426.0127a.24009.24009 0 0 0-.17871-.05371.24951.24951 0 0 0-.20215.13965.25055.25055 0 0 0-.10059.334.5582.5582 0 0 0 .08008.11719c.002.06348.00293.12793.00488.19141A7.73269 7.73269 0 0 1 2.167 22.14063c-.02832.22559-.07227.44727-.11523.668a6.2759 6.2759 0 0 0-.1543 1.25488c.002.18652-.00293.375-.00684.56445-.00781.3125-.01465.626.00391.93555a6.11573 6.11573 0 0 0 .09863.69922 4.26529 4.26529 0 0 1 .0957.80664c-.00293.417-.002.833-.001 1.25l.001.62207c0 .11133.00488.22656.01074.34277a3.80786 3.80786 0 0 1-.00391.59863.709.709 0 0 1-.041.14355 1.29768 1.29768 0 0 0-.0625.22949 2.17476 2.17476 0 0 0-.00488.43652c.00391.06738.00781.13379.00781.19434-.00293.25684-.00684.6084.49414.6748a2.239 2.239 0 0 0 .28809.01855 4.42229 4.42229 0 0 0 .86328-.11133 4.14624 4.14624 0 0 1 .75684-.10156 3.24421 3.24421 0 0 0 .666-.07422 2.07975 2.07975 0 0 1 .38867-.02344 3.11336 3.11336 0 0 0 .38477-.01562c.64941-.08105 1.35938-.13672 2.11133-.16406a3.60085 3.60085 0 0 0 .43945-.05273 2.86267 2.86267 0 0 1 .40332-.04687 6.36256 6.36256 0 0 0 .9209-.07422 4.69057 4.69057 0 0 1 .85645-.02637c.123.00391.24609.00781.36719.00781H12.2627c.0791 0 .168.00586.25977.01074a2.267 2.267 0 0 0 .78027-.04.251.251 0 0 0 .15039-.35156.89371.89371 0 0 1-.05957-.44336l.001-.1377-.002-.26953a11.47877 11.47877 0 0 1 .05469-1.49414A.56019.56019 0 0 0 13.49609 28.207zm-.27734-.66211a.24584.24584 0 0 0-.18878.16284.11208.11208 0 0 0-.05731.01685c-.15039.11816-.30273.23145-.4541.34473a8.89315 8.89315 0 0 0-1.02734.84961.125.125 0 0 0 .001.17676.12257.12257 0 0 0 .08789.03613.1258.1258 0 0 0 .08887-.03711 8.59461 8.59461 0 0 1 .999-.8252c.10352-.07715.20673-.15686.30994-.23608a7.01945 7.01945 0 0 0-.07562.69824l-.00092-.0022a.125.125 0 0 0-.17676-.001l-.17187.16992a9.00817 9.00817 0 0 0-.73828.78809.12506.12506 0 0 0 .19531.15625 8.90615 8.90615 0 0 1 .71875-.7666l.17188-.16992.00006-.00018c-.00629.25525-.0094.51117-.00787.76288l.002.26855-.001.12891a2.16081 2.16081 0 0 0 .01367.35547c-.11816 0-.23828-.00488-.35449-.0127-.10254-.00586-.20117-.01172-.29-.01172H10.93555c-.11621 0-.2334-.00391-.35254-.00684a4.92634 4.92634 0 0 0-.95117.03125 5.86849 5.86849 0 0 1-.85156.06836 3.26893 3.26893 0 0 0-.47363.05371 2.98191 2.98191 0 0 1-.37793.0459c-.76562.02832-1.49023.085-2.1543.168a2.48084 2.48084 0 0 1-.31934.01172 2.37209 2.37209 0 0 0-.49414.0332 2.65608 2.65608 0 0 1-.56836.06445 4.5711 4.5711 0 0 0-.84863.11133 3.00494 3.00494 0 0 1-.98926.08691c-.02734-.00391-.04687-.00781-.05566-.00781a1.55154 1.55154 0 0 1-.00391-.167c0-.07129-.00391-.14941-.00879-.22754a1.80045 1.80045 0 0 1 0-.333.74128.74128 0 0 1 .04-.13672 1.10365 1.10365 0 0 0 .06543-.25 4.0722 4.0722 0 0 0 .00684-.68164c-.00488-.1084-.00977-.2168-.00977-.32031l-.001-.623c-.001-.415-.002-.83008.001-1.24512a4.82785 4.82785 0 0 0-.10352-.90039 5.135 5.135 0 0 1-.09082-.64062c-.01855-.29492-.01172-.59375-.00391-.89258.00391-.19434.00879-.38867.00684-.58105A5.66793 5.66793 0 0 1 2.543 22.9043c.04492-.23145.08984-.46387.12012-.7002a8.1763 8.1763 0 0 0 .03027-1.27344L2.6875 20.708l.07129-.00879.16211-.01953a2.6488 2.6488 0 0 1 .43066-.01758c.25391.002.50586-.001.75977 0l.76172-.001a3.93931 3.93931 0 0 0 .87891-.05957l.27441-.05957a5.96616 5.96616 0 0 1 .85449-.14648 10.20956 10.20956 0 0 1 1.52246.0332c.26953.01953.53906.03906.8125.04785.78613.02441 1.585.01465 2.3584.00391l.91113-.00977c.059 0 .12842-.00586.19788-.01147-.16663.14746-.325.29626-.50842.47437-.10937.10645-.2207.209-.333.3125-.09082.084-.18262.16895-.27246.25488-.04.03906-.0791.07813-.11816.11816a2.86169 2.86169 0 0 1-.27832.25977.12462.12462 0 1 0 .15234.19727 3.00379 3.00379 0 0 0 .30469-.28223c.03711-.03809.0752-.07617.1123-.1123.08887-.085.17969-.168.26953-.252.11328-.10449.22754-.209.33691-.31641.17969-.1748.35742-.34473.55371-.51465a1.01969 1.01969 0 0 0 .16895-.152c.13367.00629.1994.03168.20605.08661.00177.01459-.00012.03149.00134.04626-.01068.00562-.02356.00427-.03259.01331-.48145.47656-.88477.89648-1.23535 1.28516a7.52564 7.52564 0 0 0-.74023.915.12455.12455 0 0 0 .03613.17285.12683.12683 0 0 0 .06836.02051.12252.12252 0 0 0 .10449-.05664 7.34832 7.34832 0 0 1 .7168-.88379q.46875-.51883 1.09192-1.13983c-.00171.21613-.01306.43311-.02844.62323-.00977.122-.03668.24561-.05609.36865a.117.117 0 0 0-.05328.022l-.17285.17285a11.32707 11.32707 0 0 0-1.54883 1.77441.12473.12473 0 0 0 .03613.17285.12683.12683 0 0 0 .06836.02051.12252.12252 0 0 0 .10449-.05664 11.01618 11.01618 0 0 1 1.50421-1.72064c-.0484.22717-.10443.45392-.16046.6767l-.03613.14453c-.0127.04883-.03125.10547-.05176.165a1.07606 1.07606 0 0 0-.05078.83008.25012.25012 0 0 0 .20215.13281.24428.24428 0 0 0 .21973-.09961 1.27215 1.27215 0 0 0 .19824-.47363.68942.68942 0 0 1 .13281-.31445 1.89255 1.89255 0 0 1 1.65723-.34277c1.2207.35449.81641 2.17383.76562 2.38086a6.27671 6.27671 0 0 1-.249.73535c-.05273.13574-.10449.27051-.165.44629a2.11342 2.11342 0 0 1-.21777.49414 2.51933 2.51933 0 0 1-.7959.80273.9735.9735 0 0 1-.82617-.07617.55143.55143 0 0 1-.07227-.06055A.54373.54373 0 0 0 13.21875 27.54492zM19.15234 18.22168l-.35352-.02344a7.09515 7.09515 0 0 0-1.41113-.00488.48887.48887 0 0 0-.36719.19727.46466.46466 0 0 0 0 .415.91279.91279 0 0 1 .0459.17383 9.79973 9.79973 0 0 1 .02832 1.68945c-.01172.28027-.02246.55859-.02246.8291v.94531c0 .06738.00586.14746.01172.23242.00391.0498.00781.10547.01074.16211l-.00488.00977c-.08691.21875-.14355.39648-.02734.53809a.33071.33071 0 0 0 .28418.09375.2478.2478 0 0 0 .18262-.14551.69087.69087 0 0 0 .04395-.14258 1.125 1.125 0 0 1 .32129.04395 3.6781 3.6781 0 0 1 .76074.29883 1.50849 1.50849 0 0 1 .30371.4248l.07422.12988a5.64332 5.64332 0 0 1 .4834 1.11133 1.57686 1.57686 0 0 1-.21582 1.33008 3.32088 3.32088 0 0 1-.92969.8457l-.22168.15918c-.03613.02539-.08789.05566-.14648.08984a1.24517 1.24517 0 0 0-.57227.51465.45977.45977 0 0 0 .11523.48145.47332.47332 0 0 1 .05566.07617 2.59987 2.59987 0 0 1 .14355.60254l.02148.13281a4.66006 4.66006 0 0 1 .01855.94727c-.00684.14746-.0127.291-.01367.42871a.82394.82394 0 0 0 .16211.6084c.16016.16211.39258.16211.6875.16309.34668 0 .69043-.02734 1.0332-.05469.29688-.02344.59277-.04687.8916-.05176l.24707-.00391c.55566-.00684 1.08008-.01465 1.63379-.06934a10.74164 10.74164 0 0 1 1.291-.02246c.2627.00488.52637.00977.791.00684.19824-.00488.39355-.02832.58887-.05176.14551-.01758.291-.03613.43848-.04395.1377-.00879.27832-.00586.41992-.00488a4.64072 4.64072 0 0 0 .65527-.02344c.14941-.01953.29492-.041.43945-.0625a9.35646 9.35646 0 0 1 1.26563-.11914c.13672 0 .26953.001.40234-.001.15527.001.31055 0 .46387.001l.07129.00488a.432.432 0 0 0 .48828-.24707.73089.73089 0 0 0 .0166-.415.69944.69944 0 0 1-.01562-.13672.28093.28093 0 0 1 .0293-.06934.667.667 0 0 0 .083-.25391 2.14762 2.14762 0 0 0 .00391-.33691l-.00391-.14355.001-1.80566c.001-.62988.002-1.26074-.002-1.89062a20.34678 20.34678 0 0 1 .18848-2.46973l.05957-.52441a15.565 15.565 0 0 0 .05664-1.9043c-.00293-.19434-.00488-.3877-.00488-.58008l.001-.38965c.002-.24121.00293-.48145 0-.72168-.00684-.51855-.32812-.55273-.668-.58789-.35742-.04-.71875-.05273-1.08008-.06543-.3418-.01172-.67285-.02246-.99609-.05664a1.413 1.413 0 0 0 .21094-.33105 1.676 1.676 0 0 0 .10742-1.41113 5.14988 5.14988 0 0 0-1.84277-1.95264 3.41769 3.41769 0 0 0-1.95605-.59424h-.03125l-.23047-.001a1.638 1.638 0 0 0-1.44629.49414 2.99688 2.99688 0 0 0-.709 1.85938l-.01953.14453c-.0127.09863-.03711.21045-.06152.32813a2.19547 2.19547 0 0 0-.04395 1.13477.64249.64249 0 0 0 .06934.13965c-.167 0-.334.001-.501.002C20.34863 18.29883 19.76758 18.2627 19.15234 18.22168zm2.86621.57715l.07617.00391a.7485.7485 0 0 0 .39551-.04785.2496.2496 0 0 0 .03027-.43457 1.43559 1.43559 0 0 0-.35059-.15234c-.18945-.0625-.28223-.10059-.31055-.17871a1.91166 1.91166 0 0 1 .0625-.86426c.02734-.13135.05371-.25537.06836-.36523l.01953-.146a2.53866 2.53866 0 0 1 .57813-1.5835c.32031-.34326.58594-.34326 1.0752-.335l.24023.001h.02832a2.92512 2.92512 0 0 1 1.69141.519 4.671 4.671 0 0 1 1.65332 1.73926 1.20385 1.20385 0 0 1-.10449.98291.61853.61853 0 0 1-.40723.37793.39934.39934 0 0 0-.26562.16406.25006.25006 0 0 0 .14746.3877 6.35207 6.35207 0 0 0 1.00037.137c-.157.12238-.31519.23859-.46228.34247-.10937.07715-.22168.14844-.334.21875a3.82448 3.82448 0 0 0-.667.49023.125.125 0 1 0 .17578.17773 3.60978 3.60978 0 0 1 .624-.45605c.11621-.07324.23242-.14648.3457-.22656.218-.15393.45764-.33643.68457-.528.12567.00549.25281.015.377.01917.15857.0058.31824.012.482.02045-.59625.50183-1.18756.98425-1.689 1.39069-.09375.07617-.19141.14844-.28809.2207a4.67385 4.67385 0 0 0-.62012.52246.125.125 0 0 0 .00488.17676.128.128 0 0 0 .08594.03418.12658.12658 0 0 0 .09082-.03906 4.46134 4.46134 0 0 1 .58789-.49414c.09961-.07422.19922-.14844.2959-.22656.52148-.42285 1.13965-.92578 1.76074-1.44922a.118.118 0 0 0 .03375-.11652c.11676.00842.23016.015.3559.02863.07422.00781.16113.01758.15527-.00781a.45986.45986 0 0 1 .00879.09863c.00165.1355.00067.2713.00055.407-.22284.20734-.44476.418-.6568.62616-.251.24707-.51074.502-.77539.74219a14.906 14.906 0 0 1-1.21973.96289.12462.12462 0 0 0 .07324.22559.12014.12014 0 0 0 .07324-.02441 14.916 14.916 0 0 0 1.24121-.97852c.26855-.24316.53027-.501.7832-.749.1557-.15344.32007-.30548.48126-.45917l-.00177.35272c0 .06238.00122.12555.00159.18817l-.00061.00031a4.59649 4.59649 0 0 1-.45508.48145c-.05371.05078-.10742.10254-.16016.1543-.0752.07617-.14941.1543-.22266.23242-.1377.14453-.28027.29492-.43066.4248a.1242.1242 0 0 0-.01367.17578.12268.12268 0 0 0 .09473.04395.12133.12133 0 0 0 .08105-.03027c.16113-.13867.30762-.293.4502-.44238.07227-.07617.14453-.15332.21777-.22656.05176-.05078.10352-.10156.15625-.15234.09839-.0943.19037-.20068.28583-.30212l.00031.03845c.00287.25433.00354.51288.00122.77094a.12128.12128 0 0 0-.09009.04547 7.108 7.108 0 0 1-.55859.59668c-.07812.07715-.15625.1543-.2334.2334l-.1123.11719a2.94278 2.94278 0 0 1-.30859.29785.12543.12543 0 0 0-.01953.17578.12247.12247 0 0 0 .09766.04688.12492.12492 0 0 0 .07813-.02734 3.26383 3.26383 0 0 0 .334-.32129l.10938-.11426c.07617-.07812.15332-.1543.23047-.23047.15643-.15485.31238-.32239.463-.49506-.00763.25079-.01666.50177-.04407.747l-.02209.19025q-.175.17184-.348.34491a11.16647 11.16647 0 0 1-1.28516 1.165.125.125 0 0 0 .14844.20117 11.44493 11.44493 0 0 0 1.31445-1.18945c.04114-.04138.08344-.08246.12476-.1239-.03418.29169-.06494.58807-.09442.8844q-.51553.54968-1.0274 1.10181c-.05273.05762-.10352.11816-.1543.17969a2.451 2.451 0 0 1-.25781.28027.12519.12519 0 0 0-.01074.17676.12691.12691 0 0 0 .09375.042.12925.12925 0 0 0 .083-.03125 2.64755 2.64755 0 0 0 .28418-.30859c.04785-.05762.0957-.11523.14551-.16895q.402-.43423.80627-.86627-.04092.50262-.04462 1.002a.11889.11889 0 0 0-.0976.03229c-.23242.23047-.45605.46777-.68066.70605-.33594.35645-.68359.72559-1.05371 1.05957a.126.126 0 0 0-.00879.17676.12384.12384 0 0 0 .09277.041.12585.12585 0 0 0 .084-.03223c.377-.34082.72852-.71387 1.06836-1.07422.19342-.20538.38873-.40936.588-.61017.00183.35687.00128.71423.0011 1.07153-.1601.172-.31592.34778-.47.52594-.14551.167-.291.334-.44141.498l-.09375.10059c-.08789.09375-.17578.1875-.25488.28711-.01758.02148-.03418.04395-.05176.06738a.68719.68719 0 0 1-.09766.11328.125.125 0 0 0 .0791.22168.12666.12666 0 0 0 .0791-.02832.82846.82846 0 0 0 .13965-.15723c.01465-.02051.0293-.04.0459-.05957.07617-.0957.16016-.18457.24316-.27344l.09473-.10254c.15234-.165.29883-.334.44629-.50293.09259-.10669.18817-.21.28192-.31537-.00012.10486.00049.20953.00031.31439l-.00037.69159a4.97162 4.97162 0 0 0-.77209.91193l-.124.17773a.12622.12622 0 0 0 .03027.1748.13124.13124 0 0 0 .07227.02246.12639.12639 0 0 0 .10254-.05273l.125-.17969a5.80163 5.80163 0 0 1 .56586-.70728l-.00043.76782c0 .05273.002.1084.00488.16406a1.93343 1.93343 0 0 1-.001.26074.21255.21255 0 0 1-.03027.08008.73855.73855 0 0 0-.07227.18066.84.84 0 0 0 .00781.33594c.00488.02441.00977.05469.01367.08105-.02734-.002-.05664-.00391-.08691-.00488-.15625-.001-.31543-.001-.47559 0-.13086 0-.2627.00293-.39355 0a10.58993 10.58993 0 0 0-1.3457.124c-.14062.02148-.28418.043-.42969.06152a3.7104 3.7104 0 0 1-.585.01953c-.15137-.00293-.30371-.00391-.45508.00488-.15723.00977-.31348.02832-.46973.04785-.17871.02148-.35742.04395-.53906.04785-.25781.00293-.5127 0-.76855-.00684a11.18916 11.18916 0 0 0-1.35156.02441c-.5332.05371-1.04785.06055-1.5918.06738l-.248.00391c-.30957.00488-.61621.0293-.92383.05371-.33008.02637-.65918.05273-.99219.05273-.1123 0-.2998-.001-.32715-.00684a.6937.6937 0 0 1-.02344-.26172c.001-.13086.00684-.26855.01367-.40918a4.98621 4.98621 0 0 0-.02637-1.05469l-.02051-.127a2.85285 2.85285 0 0 0-.1875-.74316.977.977 0 0 0-.13086-.18945 1.89705 1.89705 0 0 1 .33691-.23242c.0752-.04395.1416-.084.1875-.11719l.21582-.1543a3.76034 3.76034 0 0 0 1.06055-.98242 2.07843 2.07843 0 0 0 .27051-1.75879 6.072 6.072 0 0 0-.5293-1.21191l-.06836-.11816a1.785 1.785 0 0 0-.44922-.58691 3.54682 3.54682 0 0 0-.90234-.36816 1.60388 1.60388 0 0 0-.45508-.06641c-.002-.01758-.00293-.03516-.00391-.05176-.00586-.07227-.01074-.13965-.01074-.19629V21.498c0-.26367.01074-.53516.02148-.80957a10.26884 10.26884 0 0 0-.03125-1.77734 1.27215 1.27215 0 0 0-.05664-.22949 7.23964 7.23964 0 0 1 1.25879.01563l.35449.02344c.59766.04 1.23438.0791 1.83984.07715C21.31348 18.7959 21.666 18.79492 22.01855 18.79883z"/><path d="M30.625,5.0083l-.06445.00146a7.91713,7.91713,0,0,1-1.16309-.064c-.25879-.03418-.51953-.05127-.78027-.06836-.26172-.01709-.52246-.03418-.78027-.07031-.14844-.021-.27832-.04932-.40527-.07715a3.39958,3.39958,0,0,0-.75488-.10107l-.0791-.00439c-.292-.01562-.61719-.0376-.69629.22266a.90516.90516,0,0,0,.07129.49463.33489.33489,0,0,0,.03027.085l.001-.002c-.01855.75684-.90039,1.04883-1.16992,1.12012a2.18071,2.18071,0,0,1-1.74219-.2207,2.33843,2.33843,0,0,1-.69922-.60547c-.04687-.10449.04688-.28711.12207-.43359l.042-.082a.2504.2504,0,0,0-.082-.31592c-.209-.144-.53223-.10156-.96582-.02441-.10352.01807-.19629.03564-.26074.03955a9.67031,9.67031,0,0,1-1.624-.09229l-.06445-.00732c-.167-.019-.33105-.04443-.49414-.06982a6.084,6.084,0,0,0-1.09473-.10156c-.26562.00586-.668.01416-.7168.51758-.01074.10938-.01855.22314-.02734.33789a2.4796,2.4796,0,0,1-.209,1.0498.25045.25045,0,0,0,.0293.32813.24258.24258,0,0,0,.18652.06885l.00781.02734.01953.06592c.09863.31055.19531.62988.27051.94727a6.35666,6.35666,0,0,1,.10547,1.55615l-.00391.36963c0,.29443-.00977.59424-.01855.89551a14.61693,14.61693,0,0,0,.02832,1.98389,15.81487,15.81487,0,0,1,.08594,1.71533v.90967c0,.03027-.00488.08154-.01074.14307-.03418.38867-.04395.63525.09766.77734.14258.1416.3877.13184.77441.09814.06055-.00537.11133-.01025.1416-.01025l.15918.00049c.05371.00049.10742.00049.16113.00049a1.2271,1.2271,0,0,0,.167-.001.26287.26287,0,0,1,.11719.0293.8594.8594,0,0,0,.167.05273,1.79957,1.79957,0,0,0,.31934.02539.63761.63761,0,0,1,.29883.04688.24844.24844,0,0,0,.11328.02734.26112.26112,0,0,0,.0918-.01709.25043.25043,0,0,0,.14258-.147,1.66384,1.66384,0,0,0,.07422-.44971,2.1067,2.1067,0,0,1,.02344-.21387,3.7161,3.7161,0,0,1,.249-.8833,2.96045,2.96045,0,0,1,1.10938-1.439,4.6483,4.6483,0,0,1,2.01172-.35352,6.26752,6.26752,0,0,1,2.10742.41406,1.815,1.815,0,0,1,.72266.59619c.10938.12549.21973.252.34473.37012a1.76944,1.76944,0,0,0,.34766.23584,1.00127,1.00127,0,0,1,.29.2041.94611.94611,0,0,1,.08008.2666,1.58222,1.58222,0,0,1,.02734.3374c.001.09717.00293.1958.01758.34814.01758.1958.08691.28223.30176.3501a.92123.92123,0,0,0,.35645.021,1.36265,1.36265,0,0,1,.13672-.00439c.1084.00879.21582.0249.32324.0415a4.22627,4.22627,0,0,0,.45215.05078c.1748.00732.35352.00342.53125-.00049l.28516-.00439c.02344,0,.05762.00439.09668.0083a.77633.77633,0,0,0,.44531-.03076c.37109-.19629.34082-.77588.31934-1.19873-.00488-.09326-.00977-.17627-.00781-.23828a5.81258,5.81258,0,0,1,.1416-.96924,6.28015,6.28015,0,0,0,.15137-1.03516c.01074-.29883.002-.59961-.00781-.90039a8.648,8.648,0,0,1,.02246-1.27734A14.22855,14.22855,0,0,0,31.44238,8.291c-.01855-.37451-.03613-.75049-.04-1.13086a3.779,3.779,0,0,1,.04492-.53809,4.92715,4.92715,0,0,0,.0498-.54346.88072.88072,0,0,1,.0459-.165A.74585.74585,0,0,0,31.56152,5.29C31.3916,4.98535,30.90918,5.00049,30.625,5.0083ZM28.29,15.86523l-.03613.11084.00586-.106-.13086.02.13379-.07422.00586-.09814a.17388.17388,0,0,1,.05664.041l-.00879.02783.02246-.01221a.18218.18218,0,0,1,.03711.07813ZM31.11853,5.56781c-.81641.86737-1.59009,1.75427-2.3031,2.58453a.12476.12476,0,0,0,.01367.17627.12133.12133,0,0,0,.08105.03027.12379.12379,0,0,0,.09473-.04346c.62024-.72253,1.29242-1.48663,1.992-2.24341a4.44586,4.44586,0,0,1-.04474.4856,4.31962,4.31962,0,0,0-.0498.60742l.0014.04028-.01117.00952a.12609.12609,0,0,0-.01953.043c-.18848.2002-.39062.39014-.58789.57471q-.15234.14282-.30371.28809l-.082.0791a4.03692,4.03692,0,0,0-.78223.92041.12445.12445,0,0,0,.04688.17041.12867.12867,0,0,0,.06152.01611.12335.12335,0,0,0,.1084-.06348,3.88831,3.88831,0,0,1,.73926-.86328l.082-.07959c.09961-.09668.2002-.19092.30176-.28564.15442-.1449.30585-.304.45892-.45862.008.25348.01483.50757.02643.75891.004.08063.00458.15723.00836.237-.00421.00342-.01038.00214-.01422.00616l-.27637.28906c-.23145.24414-.46387.48877-.70312.72412-.0918.09131-.1875.17871-.2832.26611-.11719.1084-.23535.2168-.34766.33057a.125.125,0,0,0,.001.17676.12631.12631,0,0,0,.08789.03613.12379.12379,0,0,0,.08887-.03711c.10938-.11133.22461-.2168.33984-.32227.09668-.08936.19434-.17871.28906-.272.24121-.2373.47559-.48389.709-.73l.12091-.12714c.009.23328.0152.46936.01447.69983-.34686.36426-.70428.74011-1.08752,1.0733-.03711.03223-.0752.06787-.11328.10449a1.25023,1.25023,0,0,1-.28809.22607.12485.12485,0,0,0,.05371.23779.12323.12323,0,0,0,.05371-.01221,1.45091,1.45091,0,0,0,.35254-.27c.03516-.03418.07031-.06738.10547-.09766.319-.2774.61536-.58063.90442-.88257-.00836.21472-.00647.42841-.03235.64575-.00824.06958-.00653.13928-.01184.209-.10065.07837-.20325.15558-.29871.23584-.07617.064-.15234.12793-.22949.18945l-.1123.08936a6.83091,6.83091,0,0,0-.82422.72607.12511.12511,0,0,0,.00879.17676.12225.12225,0,0,0,.084.03271.12669.12669,0,0,0,.09277-.04053,6.587,6.587,0,0,1,.793-.69873l.11426-.09033c.07813-.063.15625-.12793.23438-.19336.03845-.03217.07959-.06165.11871-.094-.00641.27136-.004.54187.00427.8067l-.02631.02509c-.06738.06592-.13477.13135-.20508.19531-.10937.10107-.23437.19434-.35449.28467l-.34375.26514c-.08105.064-.16211.12793-.24316.19043l-.03223.02539a.52441.52441,0,0,1-.13086.08594.12493.12493,0,0,0,.00977.24951l.00977-.00049a.52908.52908,0,0,0,.26758-.14014l.02734-.02148c.083-.06348.165-.12793.24707-.19287l.33789-.26123a4.60336,4.60336,0,0,0,.374-.30078c.02228-.02045.04364-.04175.06555-.0625.00385.176.01129.35248.00476.52734-.00262.07721-.01605.15448-.02429.23151-.12488.09283-.24933.1861-.37219.28168-.19336.15039-.38672.30078-.58789.44092a1.07,1.07,0,0,0-.25586.24219l-.02734.04248a.36012.36012,0,0,1-.042.05957.12473.12473,0,1,0,.14063.20605.42169.42169,0,0,0,.11328-.1333l.01855-.02832a.81708.81708,0,0,1,.19531-.18359c.20508-.14209.40234-.29541.59961-.44873.0567-.04407.11517-.08643.17218-.13031-.022.12317-.04492.24615-.07062.37347-.03522.17242-.07043.348-.09863.52637-.22168.19269-.42218.35632-.62109.50391l-.09277.0708a1.39986,1.39986,0,0,1-.27441.18066.12488.12488,0,0,0,.05176.23877.12069.12069,0,0,0,.05176-.01123,1.65368,1.65368,0,0,0,.32422-.21045l.08789-.06738c.14246-.10529.28693-.22162.436-.34583-.00452.056-.0152.11053-.017.16711-.002.07275.002.17041.00781.28027a2.62982,2.62982,0,0,1-.01953.71826,1.362,1.362,0,0,1-.19238-.01172c-.05957-.00635-.11328-.01123-.14941-.01123l-.2959.00439c-.16895.00293-.33594.0083-.501.00049a3.45643,3.45643,0,0,1-.39648-.04541c-.11914-.01807-.23926-.03564-.3584-.04492a1.54617,1.54617,0,0,0-.21.00391.89411.89411,0,0,1-.13379.00586c-.00781-.0791-.00781-.15674-.00879-.23291a2.06852,2.06852,0,0,0-.05176-.49463,1.12409,1.12409,0,0,0-.12891-.36475,1.22964,1.22964,0,0,0-.46973-.37744,1.45358,1.45358,0,0,1-.251-.16309c-.1123-.10693-.21191-.22266-.31152-.33594a2.25543,2.25543,0,0,0-.92969-.73779,6.75388,6.75388,0,0,0-2.27734-.44434,4.87525,4.87525,0,0,0-2.24219.41016,3.36188,3.36188,0,0,0-1.334,1.67578,4.20163,4.20163,0,0,0-.28613.99756,2.51564,2.51564,0,0,0-.0293.26807c-.002.02881-.00488.05859-.00684.08789-.15527-.01709-.28516.00391-.44141-.02686a.36916.36916,0,0,1-.07227-.0249.74684.74684,0,0,0-.30664-.06592H19.208c-.10449.002-.21094.002-.31543.00049l-.16113-.00049c-.03906,0-.10547.00537-.18457.01221-.082.00684-.24121.01758-.35059.019-.002-.10645.0127-.271.01953-.353.00781-.08008.0127-.147.0127-.18652v-.90967a16.56557,16.56557,0,0,0-.08789-1.76855,14.205,14.205,0,0,1-.02637-1.91553c.00879-.30615.01855-.61084.01855-.90967l.00391-.36377a6.81119,6.81119,0,0,0-.11914-1.67773c-.07715-.32959-.17773-.66162-.29687-1.03809a.84.84,0,0,0-.1416-.31055,4.33185,4.33185,0,0,0,.14648-.9873c.00781-.11035.01563-.22021.02539-.37256a.99518.99518,0,0,1,.2334-.01953,5.35408,5.35408,0,0,1,1.00488.0957c.16992.02637.34082.05273.51367.07275l.06445.00732a9.979,9.979,0,0,0,1.71191.09424c.07813-.00488.19043-.02393.31641-.04639.09082-.01611.23535-.0415.36035-.05615a.78669.78669,0,0,0-.01855.627,2.81418,2.81418,0,0,0,.9043.832,2.69432,2.69432,0,0,0,2.11914.27051,1.796,1.796,0,0,0,1.543-1.59229.80738.80738,0,0,0-.05078-.23437c-.00684-.02295-.01562-.0542-.02539-.085.05469.002.10742.00488.13867.00684.0459.00293.084.00537.1084.00537a2.93548,2.93548,0,0,1,.65137.08984c.1377.02979.2793.06055.44043.0835.27051.03809.54395.05615.81836.07422.02289.00146.04578.00452.06873.006a11.40319,11.40319,0,0,1-1.64783,1.48468.12485.12485,0,0,0,.07129.22754.12441.12441,0,0,0,.07129-.02246,12.61719,12.61719,0,0,0,1.82928-1.66138c.11823.00989.23669.01526.35431.031.23517.03119.47064.04791.71136.0578-.39526.33063-.76581.70074-1.12347,1.05939l-.293.29346a11.32778,11.32778,0,0,0-.95312,1.083.12522.12522,0,0,0,.19727.1543,10.95711,10.95711,0,0,1,.93164-1.05957l.29492-.29443c.3584-.36084.72949-.7334,1.124-1.06006a.12453.12453,0,0,0,.01764-.1723c.10889.0022.21362.00757.32806.00629l.07227-.002a1.99456,1.99456,0,0,1,.48438.02295A.20124.20124,0,0,1,31.11853,5.56781Z"/><path d="M19.39355 11.34717a1.55131 1.55131 0 0 1 .02148-.19141 2.13388 2.13388 0 0 0 .02832-.2334c.00781-.14893.00488-.30029.002-.45117-.001-.07568-.00293-.15088-.00293-.22607 0-.146.002-.29248.00391-.439.00293-.25342.00586-.50732 0-.76025a6.55122 6.55122 0 0 0-.08594-.80518A4.2011 4.2011 0 0 1 19.293 7.10205a.12445.12445 0 0 0-.10937-.13916.12571.12571 0 0 0-.13867.10889 4.4544 4.4544 0 0 0 .06738 1.20557 6.429 6.429 0 0 1 .084.77441c.00586.25.00293.501 0 .75146-.002.14746-.00391.29492-.00391.44189 0 .07666.002.15381.00293.231.00293.145.00586.29-.002.43359-.00391.07227-.01465.1416-.02441.20752a1.60186 1.60186 0 0 0-.02539.22607.11887.11887 0 0 0 .125.127A.12484.12484 0 0 0 19.39355 11.34717zM19.36719 12.21094a.12493.12493 0 0 0-.125.125v.396a.125.125 0 0 0 .25 0v-.396A.12493.12493 0 0 0 19.36719 12.21094zM5.25391 17.06836a.12035.12035 0 0 0 .09863-.0498 1.047 1.047 0 0 1 .38574-.00977c.06348.00586.11719.00879.15625.00977a8.04733 8.04733 0 0 0 .82031-.07666 7.12967 7.12967 0 0 1 .89063-.07568h.01465l1.002.00146c.03027 0 .06934.00293.11133.00635a.66765.66765 0 0 0 .52246-.09277.125.125 0 0 0-.17773-.17578c-.041.0415-.23926.02588-.3252.01953-.0498-.00391-.09473-.00732-.13086-.00732l-1.001-.00146H7.60547a7.22893 7.22893 0 0 0-.92285.07813c-.26074.0332-.53027.06738-.79395.07422-.03418-.00146-.07422-.00391-.12891-.0083-.21777-.02051-.49512-.04443-.60547.10645a.12629.12629 0 0 0 .02441.17627A.13133.13133 0 0 0 5.25391 17.06836zM10.28809 16.9624a1.683 1.683 0 0 1 .46191-.04492h.001a.125.125 0 0 0 .001-.25 1.86838 1.86838 0 0 0-.52832.05371.12486.12486 0 0 0 .03223.24561A.122.122 0 0 0 10.28809 16.9624zM4.11426 27.61328c.05371 0 .09082-.04395.10352-.10254a.12189.12189 0 0 0-.03418-.10449 1.61083 1.61083 0 0 1-.02832-.165l-.01074-.0752c-.0166-.11133-.0332-.22559-.04883-.33789a3.06 3.06 0 0 1-.01465-.47656 3.30579 3.30579 0 0 0-.01465-.50879A6.59177 6.59177 0 0 1 4.042 24.8125a7.994 7.994 0 0 0-.00781-.9043c-.01855-.21777-.05371-.4375-.08789-.65039-.01367-.08691-.02734-.17285-.04-.25977-.00781-.04687-.01758-.0957-.02734-.14453a1.02748 1.02748 0 0 1-.03516-.30371.12382.12382 0 0 0-.11035-.1377.11431.11431 0 0 0-.1377.11035 1.26044 1.26044 0 0 0 .03809.38184c.00879.04395.01855.08887.02441.13086.0127.08691.02734.1748.041.26172.0332.209.06738.42383.085.63281a7.68937 7.68937 0 0 1 .00781.875A6.78786 6.78786 0 0 0 3.81836 25.876a2.99336 2.99336 0 0 1 .0127.4707 3.408 3.408 0 0 0 .0166.5166c.01563.1123.03223.22852.05078.3418l.00879.06934a1.33918 1.33918 0 0 0 .05078.249.20961.20961 0 0 0 .13184.08691A.11076.11076 0 0 0 4.11426 27.61328zM4.28809 28.89453l.002-.06934a.125.125 0 0 0-.25 0l-.002.05859a.67161.67161 0 0 0 .01563.21777.12626.12626 0 0 0 .10254.08984l.0498.00586h.00879a.12478.12478 0 0 0 .07129-.22754C4.28613 28.94629 4.28711 28.9209 4.28809 28.89453zM19.76367 29.83887a.125.125 0 0 0-.001.25h.01074a1.52076 1.52076 0 0 0 .37109-.0498 3.78314 3.78314 0 0 1 .8457-.10254c.375-.00488.75-.002 1.125.001.22949.001.459.00293.68848.00293l.39551-.001c.30664 0 .61523-.001.9209.002a3.33121 3.33121 0 0 0 .51074-.042.50745.50745 0 0 1 .12207-.001.60305.60305 0 0 0 .248-.02441.1263.1263 0 0 0 .082-.1084l.00391-.03223a.12543.12543 0 0 0-.10645-.1416.119.119 0 0 0-.124.05762.60876.60876 0 0 1-.09375-.001.89744.89744 0 0 0-.1709.00488 2.42052 2.42052 0 0 1-.46973.03809c-.30664-.00391-.61426-.00293-.92285-.002l-.39551.001c-.22852 0-.458-.002-.6875-.00293-.376-.00293-.75293-.00488-1.12891-.001a4.10364 4.10364 0 0 0-.90137.1084 1.79291 1.79291 0 0 1-.32129.04395zM26.14453 29.98926c.18555.00977.36719.02148.54883.04688a.12312.12312 0 0 0 .10156.05273.12462.12462 0 0 0 .125-.125v-.03809a.12474.12474 0 0 0-.10449-.123 5.56194 5.56194 0 0 0-.65723-.06348.12519.12519 0 0 0-.01367.25z"/></g></svg>