<svg xmlns="http://www.w3.org/2000/svg" viewBox="0 0 32 32"><g data-name="Layer 13"><path d="M4.93848,22.2915c.03955.5127.07959,1.02588.10254,1.53613.00781.28467.0332.55762.05908.83154l.02637.29a6.99038,6.99038,0,0,1,.021.729,6.93024,6.93024,0,0,0,.03271.85742,7.1972,7.1972,0,0,1,.05029.73535,6.83492,6.83492,0,0,0,.06641.86768c.03369.20654.064.415.09424.62354.04541.313.09131.627.145.91162l.105,1.335a.24984.24984,0,0,0,.249.23047.26726.26726,0,0,0,.04395-.00391l.83008-.14746c.02881-.00507.04425-.02991.0683-.04352.02869.00763.05194.02728.08356.025a21.70567,21.70567,0,0,1,2.55566-.09277c.32666.00293.65332.00244.98.002.80225.00244,1.63184-.002,2.43994.04932.85352.06787,1.707.1084,2.55469.14893l.62842.03076a9.79613,9.79613,0,0,1,1.02686.1167,9.49321,9.49321,0,0,0,1.15967.125c.24414,0,.48779-.00244.731-.00537.23779-.00244.4751-.00488.709-.00488.05078,0,.1123.00586.17725.01123.0835.00732.17285.01514.26025.01514a.89521.89521,0,0,0,.229-.02539c.37939-.106.46729-.397.55029-.67187a10.74441,10.74441,0,0,0,.42041-2.41064c.05957-.87939.0459-1.77637.03271-2.644-.00537-.37256-.01123-.74463-.01123-1.11475V20.7832a.25.25,0,0,0-.5,0v.25055c-.84277.7027-1.51685,1.31171-2.09717,1.90033a.125.125,0,1,0,.17773.17578c.537-.54474,1.15906-1.1095,1.91943-1.74957v.86505c-.26941.23608-.5329.47021-.78076.71216-.23486.22852-.47559.42871-.73047.64063-.08887.07422-.17822.14844-.26807.22461a.125.125,0,0,0,.16211.19043c.08887-.0752.17725-.14893.26611-.22266.24707-.20557.50293-.41846.74512-.6543.19244-.18781.40167-.36963.606-.55261v.7027c-.28937.22876-.57043.47479-.84082.71564a10.80535,10.80535,0,0,1-1.45215,1.15137.1252.1252,0,0,0,.13184.21289,11.05448,11.05448,0,0,0,1.48682-1.17773c.21747-.19379.4458-.38593.67432-.57428v.64215c-.26184.22845-.51843.46991-.76611.70361-.12549.11865-.25146.2373-.37842.35449-.06152.05713-.124.11279-.186.16846a4.52218,4.52218,0,0,0-.647.666.125.125,0,0,0,.20117.14844,4.21734,4.21734,0,0,1,.6123-.62793c.06348-.05664.127-.11377.18945-.17139q.19116-.17725.37988-.35645c.193-.18164.39392-.3653.59473-.54608v.02313c0,.34546.00537.69281.01044,1.04053-.1485.12567-.2926.25421-.43719.3833-.10107.09033-.20264.18066-.30518.27a1.93441,1.93441,0,0,1-.37061.27051.125.125,0,0,0,.05762.23584.12116.12116,0,0,0,.05762-.01416A2.12763,2.12763,0,0,0,20.292,26.481c.10352-.08984.20557-.18066.30762-.272.09039-.08081.18225-.16.27356-.23975.00226.15863.00256.31866.004.47864a2.46908,2.46908,0,0,0-.38788.29529,1.91849,1.91849,0,0,1-.38623.27148.12513.12513,0,0,0,.125.2168,2.1433,2.1433,0,0,0,.43359-.30713,2.28925,2.28925,0,0,1,.21814-.16461c.00061.28748-.00916.57166-.01733.85846l-5.80579.00049c-.28809-.00049-.57568.00049-.86328-.002-.20654.0083-.39355.01611-.58936.03369-.18018.0166-.36182.02881-.54639.03174a12.46906,12.46906,0,0,0-1.64844.12012,4.64942,4.64942,0,0,1-.6377.01416,5.18434,5.18434,0,0,0-.688.01514c-.272.02979-.5376.0332-.80615.03711-.13428.002-.26953.00391-.40674.00879-.19873.00781-.396.019-.59326.02979-.28613.01611-.57178.03271-.86133.03711a5.42369,5.42369,0,0,0-1.17432.15674c-.0332.0083-.07617.01465-.12256.022a2.19623,2.19623,0,0,0-.30878.06732c-.00677-.04358-.01282-.08789-.01984-.13129A6.44417,6.44417,0,0,1,5.73,27.25391a7.61035,7.61035,0,0,0-.0542-.78271,6.47049,6.47049,0,0,1-.02832-.79053,7.34975,7.34975,0,0,0-.02344-.77734l-.02637-.29053c-.02441-.26318-.04932-.52539-.05713-.80322-.02344-.52051-.06348-1.03857-.10352-1.55664-.04883-.63184-.09961-1.28564-.1167-1.93018a67.22485,67.22485,0,0,1,.335-8.73242c.08154-.82129.08936-1.64648.09717-2.44531.00537-.56152.01025-1.123.04053-1.68457.04932-.792.09473-1.64453.09473-2.51953C5.87744,3.855,5.938,2.811,6.00342,1.67432c.00928-.22754.0459-.26465.5542-.26465H6.563l1.03125-.00244c.68506-.002,1.36816-.00439,2.04639.00244.67383.00146,1.35156-.02783,2.0083-.05908.689-.03271,1.39844-.07129,2.103-.05664h.19971A15.22023,15.22023,0,0,0,15.99219,1.208a15.8024,15.8024,0,0,1,1.6402-.1189c-.1275.087-.26428.16364-.3858.25513-.395.271-.78223.56055-1.15527.86328l-.04785.042a1.52687,1.52687,0,0,0-.40283.46875.12489.12489,0,0,0,.05762.167.12126.12126,0,0,0,.05469.0127.12455.12455,0,0,0,.1123-.07031,1.32033,1.32033,0,0,1,.34326-.39014l.04443-.03955c.36377-.29492.74561-.58008,1.13965-.85059.22345-.16852.46252-.31818.701-.46741.22607-.004.45386-.00928.68274-.01288a10.15913,10.15913,0,0,1-.94043.78741c-.11084.08008-.22021.16309-.33008.24658-.168.12744-.33594.25488-.50879.37061a.12524.12524,0,0,0,.06982.229.12688.12688,0,0,0,.06982-.021c.17676-.11914.34863-.249.52-.37939.1084-.082.21631-.16406.32568-.24268a10.86833,10.86833,0,0,0,1.14111-.96826c.0083-.00781.00726-.01947.01288-.02869.04761-.001.09412-.00134.14191-.00256.15131-.00372.27771-.00208.39276.00531a14.83875,14.83875,0,0,1-1.0993,1.10016l-.17578.16113c-.10156.09326-.20312.187-.30762.27783l-.04736.04053a1.09356,1.09356,0,0,0-.29687.33594.12491.12491,0,1,0,.22266.11328.8891.8891,0,0,1,.23633-.25879l.04932-.04248c.106-.0918.20947-.1875.313-.28271l.17383-.15918a14.93732,14.93732,0,0,0,1.21692-1.22656.47084.47084,0,0,1,.26794.23242,1.09455,1.09455,0,0,0,.076.12128A4.545,4.545,0,0,1,19.87207,2l-.03027.03223c-.21289.22852-.499.52734-.8208.811a.12461.12461,0,0,0-.01123.17627.12464.12464,0,0,0,.17627.01123c.33057-.291.62158-.59521.83838-.82764l.03027-.03223c.12158-.13049.24231-.26648.35559-.411.00891.0694.02014.13422.02332.21619a2.6152,2.6152,0,0,0,.03076.35156c.00287.01611.00177.03265.00439.04877-.0777.08905-.16473.1748-.2373.26373l-.127.1543c-.14307.17041-.30811.33154-.46777.48682l-.16162.15869a.125.125,0,1,0,.17676.17676l.15918-.15625a6.81037,6.81037,0,0,0,.48486-.50586l.12891-.15625c.02411-.02954.05054-.05377.0744-.08276a9.16742,9.16742,0,0,1,.019.97736A7.81929,7.81929,0,0,1,19.41992,4.7832c-.10889.084-.22119.1626-.3335.2417-.14307.10059-.28613.20117-.42285.31152a.125.125,0,1,0,.15723.19434c.13232-.10645.271-.2041.40967-.30127.11475-.08105.23-.16211.3418-.248a7.1294,7.1294,0,0,0,.94733-.91638c-.00342.17761-.00317.35559.00342.53638l-.06158.02991a.12463.12463,0,0,0-.06738.13916c-.09717.105-.20752.20459-.31543.30176-.10156.09131-.20215.18262-.29346.27783-.11816.123-.24072.24316-.36328.36279-.18213.17822-.37061.3623-.54346.55713a.12522.12522,0,0,0,.1875.166c.1665-.18848.35205-.36963.53076-.54443.12451-.12158.249-.24316.36914-.36865.08691-.09082.18359-.17773.28027-.26514.09924-.08942.19757-.18292.2915-.2804l.01123.12708c.02478.27563.04663.54407.06189.814-.31787.32465-.64008.6496-.95691.96185q-.304.29883-.606.59961a.125.125,0,1,0,.17676.17676q.301-.30029.60449-.59814c.26154-.25781.52612-.52771.79053-.79462.00269.11328.01074.22357.00879.34l-.002.47412c-.00018.02393.00018.04871,0,.07269a11.34618,11.34618,0,0,1-.85205.80377c-.09277.07715-.187.15234-.28125.22754-.11426.09082-.22852.18164-.33936.27637a.125.125,0,0,0,.16211.19043c.10889-.09326.2207-.18213.33252-.27148.09619-.07617.19238-.15234.28662-.23145.23132-.19409.46057-.41089.69147-.6405-.00031.20758.00311.41449.00824.624a2.84679,2.84679,0,0,0-.26562.29828A6.7122,6.7122,0,0,1,19.792,8.979c-.04395.03955-.08984.07861-.13574.11768a3.48557,3.48557,0,0,0-.31592.29248.12446.12446,0,0,0,.00732.17627.12254.12254,0,0,0,.08447.0332.12381.12381,0,0,0,.0918-.04053,3.397,3.397,0,0,1,.29443-.271c.04736-.04053.09473-.08057.13818-.11963a6.92653,6.92653,0,0,0,.604-.5791c.02673-.03516.05988-.06567.08856-.09967.00464.09625.00452.19275.01154.28864a.24719.24719,0,0,0,.26807.231.25067.25067,0,0,0,.231-.26807c-.04053-.54639-.03662-1.11182-.0332-1.65869l.002-.47314a14.0369,14.0369,0,0,0-.08154-1.54834l-.02393-.272a10.039,10.039,0,0,1-.00537-1.02881,7.44281,7.44281,0,0,0-.061-1.51953,2.05853,2.05853,0,0,1-.02344-.28369,1.78216,1.78216,0,0,0-.05127-.43555.78015.78015,0,0,0-.14893-.29443.76894.76894,0,0,1-.0625-.09619c-.30615-.60107-.918-.58105-1.40527-.57129L19.03906.5625a23.41059,23.41059,0,0,0-3.11133.14941,14.3559,14.3559,0,0,1-1.97559.082h-.19629C13.04.78223,12.32178.81738,11.625.85107c-.64941.03125-1.32324.06592-1.98.05859C8.96484.90234,8.27881.90479,7.59277.90723L6.53809.90967c-.41064.02344-1.00342-.001-1.03564.76709-.06152,1.06494-.125,2.166-.11475,3.2666,0,.85889-.04492,1.70215-.09375,2.48828-.03076.5708-.03613,1.14014-.0415,1.709-.00732.78711-.01514,1.60156-.09473,2.40039a67.71093,67.71093,0,0,0-.3374,8.79688C4.83789,20.99316,4.88916,21.65332,4.93848,22.2915Zm.96094,6.3999a1.09756,1.09756,0,0,1,.29883-.07471c.061-.00977.1167-.019.16064-.0293a4.90628,4.90628,0,0,1,1.06494-.14307c.29639-.00488.58887-.021.88184-.0376.19385-.01123.38818-.022.5835-.0293.13281-.00488.26465-.00684.39551-.00879.28418-.00391.56543-.0083.85352-.04a4.75123,4.75123,0,0,1,.62158-.01221,5.23487,5.23487,0,0,0,.70752-.01758,11.41087,11.41087,0,0,1,1.58447-.1167c.20654-.00342.40039-.01562.59814-.03369.17871-.01611.3623-.02539.53906-.03174.29.00293.5791.002.86816.002l5.78894-.00049c-.00372.06812-.00214.13776-.00671.20557l-.0014.01184c-.11731.04816-.23273.09937-.34772.15173-.14893.06738-.29785.13477-.45215.19287a2.26168,2.26168,0,0,0-.38672.17578.51037.51037,0,0,1-.15234.07275.125.125,0,0,0,.03125.24609.13692.13692,0,0,0,.03125-.00391.73754.73754,0,0,0,.22021-.10205,2.06408,2.06408,0,0,1,.34473-.15479c.15869-.06006.313-.12939.4668-.19922.06964-.03149.14032-.061.21051-.09161-.00909.0993-.02332.19476-.03473.29224-.01062.00305-.022-.00122-.03174.00494a3.88883,3.88883,0,0,1-1.31592.53223.125.125,0,0,0,.02148.248l.02148-.002a4.00632,4.00632,0,0,0,1.27081-.49829c-.0235.16388-.04565.32983-.07617.48871a.12256.12256,0,0,0-.10919-.00751c-.09668.0459-.19189.09424-.28711.14258-.17383.08838-.33789.17188-.51465.2417l-.41943.16748a.37275.37275,0,0,0-.05176.02783.1174.1174,0,0,0-.13379.11523.12444.12444,0,0,0,.11523.13379l.0127.00049a.46383.46383,0,0,0,.18945-.063l.37988-.14941c.187-.07422.36426-.16406.53564-.25146.0744-.03778.14911-.07471.22443-.11145-.05383.24554-.10193.49457-.17365.72961-.07031.23193-.0918.26514-.19092.29248a1.2784,1.2784,0,0,1-.31445-.00537c-.08008-.00684-.15674-.01318-.22021-.01318-.23584,0-.47461.00244-.71436.00488-.24121.00293-.4834.00537-.71826.00537a9.034,9.034,0,0,1-1.09277-.11914,10.20523,10.20523,0,0,0-1.07812-.12207l-.62744-.03076c-.84277-.04-1.69092-.08057-2.543-.14795-.82861-.05322-1.67139-.0542-2.47607-.05078-.32471-.00049-.64941.001-.97412-.002a22.10041,22.10041,0,0,0-2.61572.0957c-.03424.00378-.05542.03021-.08374.046a.2373.2373,0,0,0-.10083-.02258L6.162,30.687c.08685-.1145.17114-.23114.254-.34857l.16846-.23584c.08545-.11719.17139-.23486.24658-.35693a.12495.12495,0,0,0-.21289-.13086c-.07178.11621-.15381.22852-.23535.34033l-.17139.23926c-.03925.05585-.08069.11-.12042.16553l-.02435-.30627c.03729-.0351.07562-.06873.11255-.10437a3.75627,3.75627,0,0,0,.43359-.52979l.05566-.07666a.12511.12511,0,1,0-.20215-.14746l-.05615.07813a3.87726,3.87726,0,0,1-.36957.45294l-.00934-.11749c-.00385-.021-.00623-.04242-.01-.06342.056-.06683.1189-.13043.17163-.19733.08594-.10986.17188-.22021.26807-.32178a.125.125,0,0,0-.18164-.17187c-.10156.10742-.19238.22314-.2832.33936-.00842.01074-.01746.01917-.02582.02979-.02789-.17548-.05792-.35034-.08337-.52625C5.89032,28.69366,5.89618,28.69537,5.89941,28.69141Z"/><path d="M19.57666,10.44434c-.2915.00049-.5835.00049-.876-.00244a3.35657,3.35657,0,0,0-.45654.05078,2.13758,2.13758,0,0,1-.30957.0415c-.06982.00293-.68848.03369-.916.30664a.41223.41223,0,0,0-.0708.12109c-.11328.0542-.35205.16113-.832.36914a.24966.24966,0,0,0-.14941.20264,25.68981,25.68981,0,0,1-.4375,2.78955l-.02.09082a5.29049,5.29049,0,0,0-.15234.981c-.00537.19189-.02393.38086-.04248.56982a6.16642,6.16642,0,0,0-.04395.87549,1.39075,1.39075,0,0,0,.6875.98535,5.8353,5.8353,0,0,0,2.69189.811,6.391,6.391,0,0,0,.99756.02393c.13281-.00342.26465-.00684.396-.00684l.34375.00244a8.77993,8.77993,0,0,0,1.32422-.05371c.30029-.043.60107-.09766.90283-.15332a10.13,10.13,0,0,1,2.00342-.228.9688.9688,0,0,1,.10254.00732.84012.84012,0,0,1,.06152.103l.04639.084a1.76917,1.76917,0,0,0,.43018.47559l.12354.10742a1.9502,1.9502,0,0,1,.22021.25684,2.15258,2.15258,0,0,0,.29443.332.69936.69936,0,0,0,.458.19238.54435.54435,0,0,0,.2251-.04883c.51514-.23682.62891-1.22949.62939-1.46289a3.43937,3.43937,0,0,0-.37061-1.52881c-.02344-.04883-.04346-.10059-.064-.15186a2.05935,2.05935,0,0,0-.12207-.26855.79087.79087,0,0,0-.103-.13379c-.01611-.01855-.03369-.03564-.04-.04443a.56649.56649,0,0,1,0-.13574c.00244-.03906.00488-.07715.00488-.11328a2.83722,2.83722,0,0,1,.12451-.71484c.02295-.08643.04541-.17334.06641-.26221a4.38735,4.38735,0,0,0,.08545-.64746c.01123-.13818.022-.27686.0498-.45459A7.29482,7.29482,0,0,0,26.94873,12.77c.00293-.2793.00146-.55859,0-.83838l-.002-.43555c0-.021.00391-.05518.00781-.0957a.82743.82743,0,0,0-.05566-.54639c-.14307-.20264-.415-.17529-.61035-.15381a.39449.39449,0,0,1-.11084.0083c-.1792-.00684-.35449-.02539-.52979-.04346-.24512-.0249-.4834-.03223-.74512-.04883L24.5,10.62207a10.79318,10.79318,0,0,1-1.18115-.02344c-1.07227-.104-2.19336-.15479-3.42773-.15479Zm2.688,1.41455a.12512.12512,0,0,0,.17676.00488,2.31445,2.31445,0,0,1,.25586-.19824c.04443-.03125.08887-.0625.13184-.09473.08447-.063.166-.12793.24707-.19287.1228-.09833.24158-.18787.36591-.273q.12515.00824.25043.012c-.03369.02863-.0675.05688-.1012.08569-.17432.14844-.34912.29736-.52832.43945l-.06836.05225a1.23066,1.23066,0,0,0-.28271.27051.125.125,0,0,0,.20605.1416,1.02283,1.02283,0,0,1,.22852-.21338l.07178-.05518c.18164-.14355.3584-.29443.53516-.44531.09717-.08252.19385-.165.2915-.24609.00659-.00555.00592-.01471.01111-.02124.15186-.00037.304-.00116.45325-.00366l.03247-.00043c-.0365.03137-.07251.06342-.10913.09467-.15527.13281-.31006.26563-.46.4043-.0498.04541-.103.08887-.15625.13281a1.85133,1.85133,0,0,0-.34717.34131.12493.12493,0,1,0,.20313.14551,1.65217,1.65217,0,0,1,.30273-.29346c.05713-.04687.11377-.09375.167-.14258.14795-.13623.30029-.26709.45313-.39795.11115-.0954.22217-.19092.33154-.28809.09344-.00012.18829.01233.28326.019-.1004.09863-.19263.20258-.30328.29889-.0791.06885-.1582.13867-.23584.21045-.12061.11035-.2417.2207-.36963.32227a.77678.77678,0,0,0-.21484.23486.12513.12513,0,0,0,.2168.125.527.527,0,0,1,.15283-.16357c.1333-.10547.25928-.21973.38428-.335.07617-.07031.15381-.13818.231-.20557a5.19672,5.19672,0,0,0,.47833-.4646c.01556.00159.03156.00159.04706.00317.103.01056.20709.01678.31049.02539a5.394,5.394,0,0,1-.56732.57275,5.22735,5.22735,0,0,0-.65283.65771.12555.12555,0,0,0,.02148.17578.12577.12577,0,0,0,.17578-.02148,4.91515,4.91515,0,0,1,.62207-.62549,4.68995,4.68995,0,0,0,.71387-.74261c.03809-.00171.07385-.00256.12012-.00739.03418-.00342.085-.00879.12891-.01074-.00244.05908-.00928.12891-.0127.16748-.00214.02386-.00232.03662-.00391.05713a2.68733,2.68733,0,0,1-.43213.47217c-.1001.08887-.19971.17871-.29932.26855-.1416.12793-.28271.25586-.42627.38086a.12494.12494,0,1,0,.16406.18848c.145-.126.28711-.25488.42969-.38379q.14868-.134.29785-.26758a3.61038,3.61038,0,0,0,.26166-.256l.00055.12079c.00037.07153-.00031.143,0,.21454a.11772.11772,0,0,0-.10889.02814c-.21143.21143-.48877.49268-.75977.79248a.12514.12514,0,0,0,.18555.168c.24146-.26794.48309-.51392.68311-.71478,0,.11407.00122.22815,0,.34222a4.38676,4.38676,0,0,1-.0332.47217,2.204,2.204,0,0,0-.23535.16211c-.043.04-.0835.08105-.124.12207a2.23124,2.23124,0,0,1-.167.1582.12492.12492,0,1,0,.1582.19336,2.37207,2.37207,0,0,0,.187-.17627c.0376-.03809.07471-.07617.11475-.11279.00616-.00562.01361-.00812.01978-.01367-.01038.06952-.01825.133-.02954.20654-.02295.14893-.03564.29932-.04785.44971a3.919,3.919,0,0,1-.07422.57471c-.00787.03375-.01678.06653-.02515.1a4.0407,4.0407,0,0,0-.41187.36438.125.125,0,1,0,.17871.1748c.04395-.04486.08777-.07941.13159-.12042a2.723,2.723,0,0,0-.06744.47925c-.02557.02313-.05017.04785-.07587.07086l-.2002.18311a1.72953,1.72953,0,0,1-.30273.24365.125.125,0,0,0,.12793.21484,1.97629,1.97629,0,0,0,.3457-.27588l.09033-.0827a.56833.56833,0,0,0,.03711.176.67547.67547,0,0,0,.13037.18848l.00311.0036a7.26583,7.26583,0,0,0-.5329.5213.12511.12511,0,0,0,.18457.16895c.14789-.16223.31207-.30505.473-.45184l.00507.01141c.0249.0625.0498.125.07813.18408.01947.04083.02557.07794.04321.1181a6.52612,6.52612,0,0,1-.42212.52692.12508.12508,0,0,0,.18359.16992c.12354-.13361.22919-.27936.33893-.42255a2.97329,2.97329,0,0,1,.12512.48151.11519.11519,0,0,0-.071.0177,1.19932,1.19932,0,0,0-.33789.38281.28423.28423,0,0,1-.11523.13867.12489.12489,0,1,0,.13379.21094.50839.50839,0,0,0,.20508-.23975.93649.93649,0,0,1,.21777-.24176c.00348.05652.02057.11249.02051.16949-.001.35742-.17139.93262-.33789,1.00928-.04395.01855-.125-.04736-.14941-.06885a1.79939,1.79939,0,0,1-.22363-.25732,2.45291,2.45291,0,0,0-.28027-.32178l-.13477-.11768a1.33409,1.33409,0,0,1-.32031-.34229l-.042-.07617a.57371.57371,0,0,0-.59033-.37109c-.04639-.001-.09277-.002-.13916-.002a10.97542,10.97542,0,0,0-1.96729.23828c-.29492.0542-.58936.10791-.88281.1499a8.35127,8.35127,0,0,1-1.24854.04883l-.34912-.00244c-.13574,0-.272.00342-.40918.00732a6.38533,6.38533,0,0,1-.92285-.02051,5.44088,5.44088,0,0,1-2.46338-.72217c-.2002-.14258-.46729-.36035-.47754-.59961a5.62253,5.62253,0,0,1,.0415-.80518c.01953-.2002.03906-.40039.04492-.604a4.89373,4.89373,0,0,1,.14063-.8877l.02-.0918a25.64777,25.64777,0,0,0,.43018-2.69775c.91553-.397.99707-.439.99023-.59229a1.626,1.626,0,0,1,.51563-.106,2.75391,2.75391,0,0,0,.38037-.04932,1.09117,1.09117,0,0,1,.36182-.043c.29443.00342.58838.002.88232.00244l.31348-.00049c1.13806,0,2.17236.048,3.16455.1377-.04413.03461-.09271.06671-.13574.10107-.0791.063-.15869.12646-.24072.188-.041.03076-.083.06055-.12549.09033a2.45929,2.45929,0,0,0-.28418.22119A.125.125,0,0,0,22.26465,11.85889Z"/><path d="M18.166 13.44238a.24971.24971 0 0 0-.11035-.04492.88862.88862 0 0 0-.62646.09619 1.07423 1.07423 0 0 0-.42871.54932 1.6976 1.6976 0 0 0-.11523.74414.78575.78575 0 0 0 .42334.64307.5783.5783 0 0 0 .19238.09424.69058.69058 0 0 0 .17188.01953c.03711 0 .07227-.002.10449-.00391l.10059-.00244a.5228.5228 0 0 0 .3916-.12793 1.20843 1.20843 0 0 0 .3584-.48682l.02783-.07227a1.05728 1.05728 0 0 0 .064-.19482 1.43462 1.43462 0 0 0 .01221-.33105A1.21763 1.21763 0 0 0 18.166 13.44238zm.06348 1.11621a.55263.55263 0 0 1-.03662.103c-.01416.03467-.02832.06982-.03955.10449a.78155.78155 0 0 1-.20947.27051l-.19482.00391a.27767.27767 0 0 1-.16064-.02441c-.02295-.01562-.04639-.03125-.06934-.04395a.25917.25917 0 0 1-.13672-.23486 1.22026 1.22026 0 0 1 .08545-.51709.58191.58191 0 0 1 .21191-.29395.30715.30715 0 0 1 .16895-.0459c.022 0 .0459.00146.07275.00391a.741.741 0 0 1 .31055.44727l.002.063A.83035.83035 0 0 1 18.22949 14.55859zM21.332 13.67969a.24754.24754 0 0 0-.10937-.04443.88247.88247 0 0 0-.62793.09521 1.09059 1.09059 0 0 0-.4292.5498 1.71146 1.71146 0 0 0-.11426.74414.78306.78306 0 0 0 .42188.64209.59245.59245 0 0 0 .19482.0957.69616.69616 0 0 0 .16992.01855c.03613 0 .0708-.002.10205-.00342l.106-.00293a.4973.4973 0 0 0 .38965-.12744 1.20825 1.20825 0 0 0 .35791-.48682l.02832-.07275a1.096 1.096 0 0 0 .064-.19482 1.47174 1.47174 0 0 0 .01221-.33057A1.21763 1.21763 0 0 0 21.332 13.67969zm.06348 1.11475a.58094.58094 0 0 1-.03662.10352c-.01416.03516-.02881.0708-.04053.10645a.77347.77347 0 0 1-.2085.269l-.19727.00439a.26761.26761 0 0 1-.1582-.02441c-.00586-.00391-.064-.0415-.06982-.04492a.26039.26039 0 0 1-.13623-.23389 1.21933 1.21933 0 0 1 .08447-.51611.58382.58382 0 0 1 .21289-.29541.305.305 0 0 1 .168-.0459.69638.69638 0 0 1 .07373.00439.74141.74141 0 0 1 .31055.44629l.002.06934A.83611.83611 0 0 1 21.39551 14.79443zM23.84375 15.6665a.59245.59245 0 0 0 .19482.0957.69616.69616 0 0 0 .16992.01855c.03613 0 .0708-.002.10205-.00342l.106-.00293a.49874.49874 0 0 0 .38965-.12744 1.20477 1.20477 0 0 0 .35791-.48682l.02783-.07227a1.0852 1.0852 0 0 0 .064-.19385 1.45583 1.45583 0 0 0 .0127-.332 1.21763 1.21763 0 0 0-.56592-.88232.24754.24754 0 0 0-.10937-.04443.88211.88211 0 0 0-.62793.09521 1.078 1.078 0 0 0-.42871.54932 1.69484 1.69484 0 0 0-.11475.74463A.78306.78306 0 0 0 23.84375 15.6665zm.16016-1.209a.58333.58333 0 0 1 .2124-.29443.305.305 0 0 1 .168-.0459.69638.69638 0 0 1 .07373.00439.74141.74141 0 0 1 .31055.44629l.00146.06836a.79167.79167 0 0 1-.00439.15967.59483.59483 0 0 1-.03662.10352c-.01416.03467-.02832.06934-.03955.104a.77759.77759 0 0 1-.209.27l-.19727.00439a.2657.2657 0 0 1-.1582-.02441c-.00586-.00391-.064-.0415-.06982-.04492a.26039.26039 0 0 1-.13623-.23389A1.20832 1.20832 0 0 1 24.00391 14.45752zM11.2832 29.83105a.48218.48218 0 0 0 .19385.07959 3.75551 3.75551 0 0 0 .45752.0293c.06885.00146.1377.00293.20605.00635.15234.0083.3042.021.45605.03369.25293.02148.51123.04346.77295.04346a3.56084 3.56084 0 0 0 .60254-.04736 1.4095 1.4095 0 0 0 .478-.16455.40761.40761 0 0 0 .20166-.28125 1.24028 1.24028 0 0 0 .04883-.36328.46612.46612 0 0 0-.12549-.37012.456.456 0 0 0-.20312-.09424.62411.62411 0 0 0-.14746-.01318l-.04736.249-.02637-.25635a.90158.90158 0 0 0-.11426-.01416c-.32422-.01611-.65381.00146-.98633.01758l-.126.00586c-.26221.01318-.5249.02637-.78662.03711l-.06787.00293a2.58494 2.58494 0 0 0-.83887.12842.25015.25015 0 0 0-.15723.2832A1.65272 1.65272 0 0 1 11.1123 29.5.3441.3441 0 0 0 11.2832 29.83105zm.80615-.6001l.06885-.00244c.26367-.01123.52734-.02441.791-.0376l.14111-.00684a8.21369 8.21369 0 0 1 .97461-.00928.914.914 0 0 0 .09326.0127V29.188c.00488 0 .02393-.00537.04248-.00977-.00049.084-.00781.13916-.00244.20166a.91073.91073 0 0 1-.31006.103 4.821 4.821 0 0 1-1.24951-.001c-.15723-.01318-.31445-.02637-.47168-.03467-.07324-.00391-.14746-.00586-.22168-.00732a2.62134 2.62134 0 0 1-.334-.021c-.00146-.0415-.00488-.08936-.01074-.145A3.30918 3.30918 0 0 1 12.08936 29.231zM7.67383 7.54688c.00879-.45654.02344-.91113.03857-1.36621.02295-.68213.04541-1.36475.04639-2.0498a.25017.25017 0 0 0-.24951-.25049H7.50879a.25007.25007 0 0 0-.25.24951c-.001.68018-.02344 1.35693-.0459 2.03418-.01514.45752-.03027.91455-.03906 1.373-.00977.51807-.0498 1.04688-.08789 1.55811-.04687.62256-.09521 1.26611-.0918 1.90625.00146.25342.0083.51123.01514.77A14.1085 14.1085 0 0 1 6.978 13.64258c-.03271.29932-.03564.60059-.03857.89209a7.59543 7.59543 0 0 1-.04834.94336l-.02686.21924c-.01611.1377-.03174.27637-.05811.41016a1.91543 1.91543 0 0 1-.06641.231 1.92127 1.92127 0 0 0-.09717.39307 2.25758 2.25758 0 0 0-.00635.32471 1.654 1.654 0 0 1-.00781.28613c-.04053.27539-.08447.54785-.13428.82129a2.3915 2.3915 0 0 0-.02393.49121l.00244.17188a2.00743 2.00743 0 0 1-.04395.34961 2.93523 2.93523 0 0 0-.0498.36279c-.00977.17188-.00537.34619-.001.52051.00244.0918.00488.18359.00488.2749a.25.25 0 0 0 .5 0c0-.0957-.00244-.19189-.00488-.28809-.00439-.16016-.00879-.3208 0-.479a2.51368 2.51368 0 0 1 .04248-.30127 2.45856 2.45856 0 0 0 .05225-.43506l-.00244-.188a1.96184 1.96184 0 0 1 .01611-.39014c.05078-.27881.0957-.55713.13721-.83789a2.13236 2.13236 0 0 0 .01221-.373 1.80059 1.80059 0 0 1 .00391-.25635 1.488 1.488 0 0 1 .07568-.2915 2.46362 2.46362 0 0 0 .08105-.29c.0293-.14648.04688-.29834.06445-.44922l.02539-.20947A8.13971 8.13971 0 0 0 7.43945 14.54c.00293-.29248.00586-.56836.03564-.84375a14.50428 14.50428 0 0 0 .03418-1.938c-.00684-.25537-.01367-.50928-.01514-.75977-.00342-.61963.04443-1.25293.09033-1.86572C7.62354 8.61475 7.66357 8.07861 7.67383 7.54688zM6.89551 22.187a.24986.24986 0 0 0-.25.25v.876a.25.25 0 0 0 .5 0v-.876A.24986.24986 0 0 0 6.89551 22.187z"/></g></svg>