<svg xmlns="http://www.w3.org/2000/svg" viewBox="0 0 32 32"><g data-name="Layer 2"><path d="M31.40234,16.59375c-.07422-.5-.15039-1.01758-.18555-1.52734a18.49251,18.49251,0,0,0-1.2627-6.50586,9.337,9.337,0,0,0-1.30273-2.043L28.5459,6.3877a4.83847,4.83847,0,0,0-.66992-.72656,5.52387,5.52387,0,0,0-.68842-.46881c-.00629-.00751-.00647-.01825-.01471-.02435-.01367-.00989-.02985-.00726-.0451-.01117-.08936-.05273-.17877-.10785-.2674-.15875l-.16309-.09375c-.248-.14453-.49414-.292-.74023-.43848-.37109-.22168-.74219-.44336-1.11914-.65527a6.40776,6.40776,0,0,0-.88965-.39258A6.93647,6.93647,0,0,1,23.252,3.124c-.33008-.168-.6543-.34766-.97852-.52637-.41895-.23047-.85059-.46973-1.293-.68164a11.77169,11.77169,0,0,0-1.19165-.50763c-.0047-.00714-.0033-.01642-.00952-.02264a.11637.11637,0,0,0-.11542-.02478c-.0144-.00464-.02838-.01178-.04279-.01624-.06641-.01953-.13281-.03418-.19922-.04883a1.406,1.406,0,0,1-.18848-.04883,1.18384,1.18384,0,0,1-.1543-.0752c-.04883-.02618-.11365-.04626-.17059-.07141a.11931.11931,0,0,0-.0257-.09851A.12257.12257,0,0,0,18.707.98828l-.03668.03021c-.05939-.01276-.119-.02582-.17719-.037A3.32722,3.32722,0,0,1,18.09277.8877,1.45883,1.45883,0,0,0,17.60547.832l-.06152.001L17.417.832a2.67917,2.67917,0,0,0-.68066.05469,2.44949,2.44949,0,0,1-.62207.03809L15.33691.91992a10.07659,10.07659,0,0,0-3.499.38379A20.73226,20.73226,0,0,0,9.41016,2.36133c-.32617.16406-.66113.31836-.999.47266A14.27447,14.27447,0,0,0,6.208,4.00586,9.78567,9.78567,0,0,0,3.76172,6.40723,15.8512,15.8512,0,0,0,2.02246,9.40137a20.18062,20.18062,0,0,0-1.6377,6.66406,13.36493,13.36493,0,0,0,.69727,4.2832c.06348.22754.127.45605.18848.68457.085.31836.14551.63184.20605.94727.0293.14941.05859.2998.08984.45117a4.89643,4.89643,0,0,0,.82422,1.7168A12.7204,12.7204,0,0,0,5.627,27.69238a10.06416,10.06416,0,0,0,1.80273.93555l.43066.18848c.82422.373,1.71191.7627,2.61914,1.0957A20.01486,20.01486,0,0,0,15.418,31.13086c.27441.02637.55273.03711.8291.03711a15.61682,15.61682,0,0,0,2.02441-.15332,13.76456,13.76456,0,0,0,3.01465-.69336,22.019,22.019,0,0,0,5.27344-2.75977c.55957-.40527,1.14063-.87109,1.72461-1.38281l.07031-.06055a7.45418,7.45418,0,0,0,1.21387-1.23926A11.1884,11.1884,0,0,0,30.999,22.02734,9.49506,9.49506,0,0,0,31.6123,18.793,14.78483,14.78483,0,0,0,31.40234,16.59375ZM30.99164,20.11a12.55562,12.55562,0,0,0-.97015.85779c-.15625.1543-.30762.3125-.459.47168a10.00781,10.00781,0,0,1-.85839.83105c-.18945.15625-.376.31543-.5625.47461-.36035.30859-.7334.62793-1.11719.91113a.125.125,0,0,0,.07422.22559.12292.12292,0,0,0,.07422-.02441c.39063-.28906.76758-.61035,1.13086-.92187.18555-.1582.37109-.31738.55859-.47168a9.98507,9.98507,0,0,0,.88086-.85254c.14941-.15625.29883-.3125.4541-.46484.25067-.24677.48706-.45935.7204-.657a10.83253,10.83253,0,0,1-.38934,1.36993c-.11157.31323-.22705.60248-.34552.87872a.10763.10763,0,0,0-.05487-.00177,2.04363,2.04363,0,0,0-.71191.43848c-.26758.21-.52344.43164-.75293.65234a11.03806,11.03806,0,0,1-1.415.88574q-.19629.10986-.38672.21777c-.1543.08887-.31543.16895-.47656.248a6.74586,6.74586,0,0,0-.64844.35156l-.03223.01953c-.0918.05664-.26367.16113-.2334.33691a.13088.13088,0,0,0,.124.10938l.02051-.002a.11972.11972,0,0,0,.10059-.13965.42443.42443,0,0,1,.11914-.09082l.03711-.02344a6.27805,6.27805,0,0,1,.624-.33691c.165-.082.33105-.16406.49023-.25586.125-.07227.25391-.14355.38379-.21582a11.213,11.213,0,0,0,1.457-.916q.34863-.334.752-.65137a1.816,1.816,0,0,1,.45758-.30737,9.31419,9.31419,0,0,1-.87457,1.53,6.9748,6.9748,0,0,1-1.13672,1.1543l-.07031.06055c-.02454.02155-.04858.04-.07312.0614a9.47913,9.47913,0,0,1-2.23938,1.10754c-.6748.18262-1.3457.34863-2.00586.498a2.73716,2.73716,0,0,1-.81543.13867.125.125,0,0,0,.002.25h.002a2.95977,2.95977,0,0,0,.87793-.14746c.65137-.14746,1.32617-.31445,2.00781-.498a6.88325,6.88325,0,0,0,1.04083-.42578c-.16223.12506-.32617.25555-.48517.37109a21.55406,21.55406,0,0,1-5.15625,2.69531,13.21883,13.21883,0,0,1-2.90527.666,12.42081,12.42081,0,0,1-2.73828.11426,19.5699,19.5699,0,0,1-4.81543-1.18945c-.8916-.32812-1.76953-.71387-2.58594-1.083l-.43555-.19141a9.78377,9.78377,0,0,1-1.71582-.88477A12.27916,12.27916,0,0,1,2.80859,23.873a4.42567,4.42567,0,0,1-.752-1.543c-.03125-.14941-.06055-.29785-.08887-.44531-.06348-.32617-.126-.65039-.21484-.98047q-.09229-.3457-.18945-.68945a12.80261,12.80261,0,0,1-.67871-4.124,19.66047,19.66047,0,0,1,1.60059-6.5A15.405,15.405,0,0,1,4.16992,6.69531,9.31556,9.31556,0,0,1,6.49316,4.416a13.89381,13.89381,0,0,1,2.127-1.127c.34277-.15723.68359-.31445,1.01465-.48047a19.99082,19.99082,0,0,1,2.36914-1.0332A8.16672,8.16672,0,0,1,14.7666,1.416c.18652,0,.375.002.56543.00293l.77637.00586a2.74878,2.74878,0,0,0,.75684-.05566,1.3008,1.3008,0,0,1,.28351-.03394c-.22357.18817-.44067.38849-.64874.59253l-.208.20117c-.03516.0332-.07715.07031-.12109.11035-.26074.23242-.61816.55176-.57812.93359a.12415.12415,0,0,0,.124.1123l.0127-.001a.12419.12419,0,0,0,.11133-.13672c-.02637-.25488.27637-.52441.49609-.72168.04688-.042.09082-.08105.12891-.11719l.208-.20215a9.30693,9.30693,0,0,1,.80371-.72656.118.118,0,0,0,.13226-.04779l.0025-.00006a.99447.99447,0,0,1,.32617.03125c.0835.02679.16278.03979.24323.05774a7.65444,7.65444,0,0,0-1.19635,1.11316c-.11719.14746-.2207.30273-.32031.4541-.10645.16016-.20605.31152-.32227.4541a.12431.12431,0,0,0,.01758.17578.12471.12471,0,0,0,.17578-.01758A5.77937,5.77937,0,0,0,16.873,3.126c.09668-.14648.19727-.29785.30762-.43555a7.905,7.905,0,0,1,1.209-1.11816c.03442-.02777.06488-.05389.09888-.08136.0506.00995.10022.01917.15405.03156a.9306.9306,0,0,1,.19922.08887,1.54746,1.54746,0,0,0,.21875.10449,1.3918,1.3918,0,0,0,.16138.04358c-.07623.074-.15137.14917-.22778.223A18.07888,18.07888,0,0,0,17.4873,3.56348a.12518.12518,0,0,0,.01758.17578.12471.12471,0,0,0,.17578-.01758A17.84757,17.84757,0,0,1,19.168,2.16211c.11237-.10858.22345-.219.33545-.32849a7.65835,7.65835,0,0,1,.87445.35406c-.24225.24866-.48468.49988-.71576.74689l-.21582.23145c-.07422.0791-.15625.15137-.23828.22363a2.37068,2.37068,0,0,0-.40332.42285.12553.12553,0,0,0,.0332.17383.124.124,0,0,0,.07031.02148.1262.1262,0,0,0,.10352-.05469,2.14677,2.14677,0,0,1,.3623-.376c.08789-.07812.1748-.15527.25391-.24023l.2168-.23145c.24969-.26782.51062-.53961.77271-.80658.048.02283.10059.046.14722.0683.20691.099.40607.21313.60852.32092a10.21609,10.21609,0,0,0-1.09094,1.2074,7.53836,7.53836,0,0,1-.55566.6416c-.126.13477-.252.26953-.37109.40918a.125.125,0,0,0,.09473.20605.12268.12268,0,0,0,.09473-.04395c.11719-.13672.24023-.26855.36426-.40039a7.69818,7.69818,0,0,0,.57422-.66406,10.18617,10.18617,0,0,1,1.10254-1.21582c.00635-.00623.00494-.01562.00964-.02277.14429.07843.29187.15051.43567.2298.2417.13342.48584.26331.73016.39233q-.45172.5007-.90887.99536c-.57031.61621-1.16113,1.25293-1.71484,1.90918a.12542.12542,0,0,0,.19141.16211c.5498-.65234,1.1377-1.28711,1.707-1.90137q.47882-.51865.9527-1.04309l.03656.01965a7.51508,7.51508,0,0,0,.74512.31543c.05725.02191.11121.04449.16724.06628a.11841.11841,0,0,0-.054.01965,12.33925,12.33925,0,0,0-2.251,2.73828.12516.12516,0,0,0,.041.17188.12331.12331,0,0,0,.06543.01855.12517.12517,0,0,0,.10645-.05957,12.07272,12.07272,0,0,1,2.20605-2.68359.12135.12135,0,0,0,.01709-.1532,4.43329,4.43329,0,0,1,.52295.243c.19122.10736.37811.22089.56665.332-.48694.51709-.95636,1.05853-1.40942,1.587-.3877.45313-.78906.92188-1.19824,1.36719a.12508.12508,0,0,0,.18359.16992c.41211-.44922.81543-.91992,1.20508-1.374.463-.54126.94287-1.09607,1.43958-1.62079.10657.06342.21478.12451.32117.18817.07391.04395.148.08722.22192.13116-.6615.80646-1.38733,1.64526-2.22778,2.56708a.126.126,0,0,0,.00879.17676.124.124,0,0,0,.084.03223.12538.12538,0,0,0,.09277-.041c.85242-.93573,1.58972-1.788,2.26025-2.60614.10168.06018.20319.12115.30518.18036l.166.0957c.0462.02649.08881.05328.13422.07959-.27686.34772-.5683.687-.85883,1.01416A15.543,15.543,0,0,0,24.52539,8.21a.12565.12565,0,0,0,.03516.17383.13.13,0,0,0,.06934.02051.1264.1264,0,0,0,.10449-.05566,15.11489,15.11489,0,0,1,1.33887-1.65723c.30042-.338.60242-.68933.88922-1.05145a4.94712,4.94712,0,0,1,.59515.4079,4.36908,4.36908,0,0,1,.59863.65332l.10742.13281c.0719.08813.13434.17328.201.25977-.29474.42432-.63794.82739-.97156,1.21777-.13379.15625-.26758.3125-.39844.46973-.083.10156-.16992.20313-.25781.30566a5.62683,5.62683,0,0,0-1.05859,1.55664.12459.12459,0,1,0,.23242.08984A5.46654,5.46654,0,0,1,27.02637,9.25c.08887-.10449.17676-.207.26172-.30859.12891-.15625.26172-.31152.39453-.46777.32257-.37561.64655-.76746.93774-1.17883a8.85408,8.85408,0,0,1,.55383.8501c-.26733.29755-.52954.60571-.78162.90588-.20215.23926-.40332.47754-.6084.71289a8.74867,8.74867,0,0,0-.71973.99023c-.0625.09473-.125.19043-.18945.28711a.12358.12358,0,0,0,.03418.17285.11878.11878,0,0,0,.06934.02148.1247.1247,0,0,0,.10352-.05566c.06543-.09668.12891-.19238.19141-.28906a8.64169,8.64169,0,0,1,.69824-.96289c.207-.23535.40918-.47559.61133-.71582.23291-.27667.47571-.55951.7207-.83423.06836.12927.13531.25861.19531.38989.07965.17444.14642.353.21515.531-.00995.01422-.02448.025-.02765.04321a1.13907,1.13907,0,0,1-.24121.44434l-.06738.09277a10.61391,10.61391,0,0,1-.99219,1.20508,7.12857,7.12857,0,0,1-.67383.58887c-.19336.15527-.39355.31543-.57812.49121a.12591.12591,0,0,0-.00488.17676.12512.12512,0,0,0,.17676.00488c.17676-.16895.373-.32617.5625-.47754a7.15368,7.15368,0,0,0,.69727-.61035,10.6467,10.6467,0,0,0,1.01563-1.23437l.06543-.08887a2.29063,2.29063,0,0,0,.19318-.3067c.12128.34894.22083.70343.30853,1.06036-.00763-.0127-.00891-.02814-.02124-.03784a.12591.12591,0,0,0-.17578.02148c-.30762.3916-.63965.77637-.96094,1.14844A20.06929,20.06929,0,0,0,27.416,13.81152a.12565.12565,0,0,0,.03516.17383.13.13,0,0,0,.06934.02051.1264.1264,0,0,0,.10449-.05566,19.54314,19.54314,0,0,1,1.55469-1.9668c.32324-.374.65625-.76074.96875-1.15723a.11856.11856,0,0,0,.0177-.06384q.15912.66394.26031,1.33374c-.00684.00293-.01477-.0036-.02118.00061a1.35392,1.35392,0,0,0-.23047.209l-.06055.06348c-.33887.34375-.66309.707-.97656,1.05957l-.02734.03027a15.55588,15.55588,0,0,0-1.39355,1.7373.12565.12565,0,0,0,.03516.17383.13.13,0,0,0,.06934.02051.1264.1264,0,0,0,.10449-.05566,15.07572,15.07572,0,0,1,1.37207-1.71l.02637-.03027c.31152-.34961.63379-.71094.96777-1.0498l.06445-.06738c.0332-.03516.06445-.06836.09668-.09863l.0127.00067c.06281.46082.11249.9187.15131,1.37054a17.05561,17.05561,0,0,0-1.79193,2.05359,8.32623,8.32623,0,0,0-.875,1.4541.1259.1259,0,0,0,.05664.168.12832.12832,0,0,0,.05566.0127.125.125,0,0,0,.11231-.06934,8.04055,8.04055,0,0,1,.84766-1.41113,17.99978,17.99978,0,0,1,1.622-1.87408c.027.344.05164.68481.07428,1.01666.0033.0481.01056.09564.01447.14368a.11856.11856,0,0,0-.06818.08191.31423.31423,0,0,1-.13672.19043c-.19629.20508-.38965.41406-.57617.623-.20605.21387-.417.42285-.627.63086-.2334.22949-.46582.46-.69043.69727a.125.125,0,0,0,.09082.21094.1228.1228,0,0,0,.09082-.03906c.22266-.23535.45313-.46387.68359-.69141.21289-.21.42578-.41992.63477-.63965.1875-.21.37891-.417.55566-.60449a.55524.55524,0,0,0,.08087-.08167c.03918.3526.08557.70306.13593,1.04456.01251.08484.01593.17334.02771.25879a.1211.1211,0,0,0-.03748-.07129.12406.12406,0,0,0-.16992.00488,1.97143,1.97143,0,0,0-.1748.19727.14305.14305,0,0,0-.02441.05762c-.30957.3877-.65039.75684-.98145,1.11719a15.69546,15.69546,0,0,0-1.3457,1.60059.12526.12526,0,0,0,.03125.17383.12091.12091,0,0,0,.07129.02246.12479.12479,0,0,0,.10254-.05371,15.51836,15.51836,0,0,1,1.3252-1.57422,17.89452,17.89452,0,0,0,1.18359-1.377.12159.12159,0,0,0,.022-.07788c.0625.4563.12256.91705.14783,1.381-.36609.32977-.72125.67883-1.06342,1.02008-.28516.28418-.58008.5791-.87891.85645a5.39647,5.39647,0,0,1-1.31348.97168.125.125,0,1,0,.10547.22656,5.57664,5.57664,0,0,0,1.37793-1.01465c.30274-.28125.59961-.57715.88575-.86328.29193-.29114.59784-.58368.906-.86877.00067.04541.00824.09094.00806.13635A7.99387,7.99387,0,0,1,30.99164,20.11Z"/><path d="M22.47461 17.3418l-.0752-.00586c-.06348-.00781-.12793-.01367-.19238-.01855-.0791-.00684-.1582-.01367-.23633-.02539a6.56969 6.56969 0 0 0-1.00684-.04785l-.11816.001c-.252-.002-.52734-.01953-.79492-.042l-.06543-.00488c-.208-.01758-.417-.01367-.624-.01172-.12793.00293-.25586.00293-.38184.001-.17187-.00488-.34375-.01758-.51562-.03125-.22168-.0166-.44336-.0332-.665-.03418h-.0791a5.48631 5.48631 0 0 1-.63281-.02637c-.13281-.01562-.26562-.02148-.39746-.02734a3.75261 3.75261 0 0 1-.44336-.03711c-.11621-.01855-.23242-.04395-.34766-.06934l-.19043-.041c-.34277-.06934-.4834-.11621-.60352-.334a.87057.87057 0 0 1-.04492-.4248c.002-.05859.00391-.11719.00391-.17383a1.71288 1.71288 0 0 1 .02832-.26758 2.32246 2.32246 0 0 0 .03418-.30078 1.61929 1.61929 0 0 1 .02832-.23437c.01172-.07422.02344-.14844.03027-.22754.03418-.41406.08984-.83008.14648-1.24707l.11133-.84375c.084-.62891.167-1.25781.23438-1.8916.02148-.207.05762-.41309.09375-.61816.02832-.1582.05566-.31641.07813-.47559a8.84312 8.84312 0 0 0 .05859-1.29395l-.001-1.63281a.25.25 0 0 0-.5 0l.001 1.63574a8.32728 8.32728 0 0 1-.05469 1.22266c-.02051.15332-.04785.30469-.07422.457-.03809.2168-.07617.43359-.09961.65234-.06543.62988-.14844 1.25391-.23145 1.87891l-.11133.84277c-.05762.42578-.11523.84961-.14941 1.27246-.00586.06543-.01562.126-.02539.18652a2.10966 2.10966 0 0 0-.03516.30176 1.89689 1.89689 0 0 1-.02734.2373 2.026 2.026 0 0 0-.03516.34766c0 .0498-.002.10059-.00391.15137a1.2474 1.2474 0 0 0 .10742.68652 1.17756 1.17756 0 0 0 .94141.583l.18262.03906c.124.02734.249.05371.373.0752a4.14132 4.14132 0 0 0 .50391.042c.11914.00488.23926.00977.3584.02441a5.86592 5.86592 0 0 0 .69238.03027h.07813c.21.001.41992.0166.62891.0332.17969.01367.35938.02734.54.03223.13281.002.26758.002.40332-.001.19043-.00293.38379-.00586.5752.00977l.06543.00586c.28223.02246.585.04395.83887.043l.11914-.001a6.05487 6.05487 0 0 1 .92676.042c.08887.01367.17969.02148.27051.0293.05762.00488.11621.00977.17285.0166.03223.00391.06934.00684.1084.00879.04395.002.123.002.13477.00586a.25007.25007 0 0 0 .36328-.34375A.65628.65628 0 0 0 22.47461 17.3418zM26.63184 7.92773a16.10741 16.10741 0 0 0 1.1123-1.50586.12459.12459 0 0 0-.207-.13867 15.92993 15.92993 0 0 1-1.0957 1.48242l-.15625.18359a12.07636 12.07636 0 0 0-.917 1.16406.12565.12565 0 0 0 .03516.17383.13.13 0 0 0 .06934.02051.1264.1264 0 0 0 .10449-.05566 11.83039 11.83039 0 0 1 .89746-1.13965z"/></g></svg>